<?xml version="1.0" standalone="yes"?>
<svg xmlns="http://www.w3.org/2000/svg" width="728" height="518">
<path style="fill:#ffffff; stroke:none;" d="M0 0L0 518L728 518L728 0L0 0z"/>
<path style="fill:#f7d5bc; stroke:none;" d="M116 109L116 108L112 98L124 98C114.55 94.0347 104.914 103.409 116 109z"/>
<path style="fill:#e99050; stroke:none;" d="M112 98C112.05 112.11 126.219 109.534 137 112.13C160.803 117.864 179.421 131.207 195.91 149C238.684 195.157 242.815 264.844 282.464 313C299.548 333.749 337.805 351.691 364 337C360.028 329.796 339.91 332.627 332 330.764C315.461 326.868 301.931 315.462 292.158 302C250.083 244.042 251.163 158.849 183 119.285C173.148 113.566 162.963 108.292 152 105.036C139.006 101.178 125.541 98 112 98z"/>
<path style="fill:#f7d5bc; stroke:none;" d="M125 98L125 99L128 99L125 98M128 99L128 100L133 100L128 99M133 100L133 101L137 101L133 100M137 101L137 102L141 102L137 101M141 102L141 103L145 103L141 102M618 103L618 104L629 104L629 106L596 123L596 124C605.155 120.189 627.039 113.068 630 103L618 103M145 103L145 104L150 104L145 103z"/>
<path style="fill:#e99050; stroke:none;" d="M312 380L312 379C327.065 378.998 341.859 375.678 356 370.586C378.672 362.423 401.074 350.75 417.586 332.83C456.81 290.264 460.298 228.167 494.155 182C507.356 163.999 524.023 148.021 543 136.193C554.092 129.28 572.18 124.526 580 114C572.796 112.024 565.499 116.289 559 119.139C543.817 125.797 528.939 132.775 515 141.861C477.843 166.083 454.344 199.648 437.424 240C420.974 279.233 412.624 323.303 375 349C393.909 318.738 413.677 293.22 408.711 255C403.165 212.323 348.946 189.183 314 214.924C271.268 246.401 287.13 326.331 347 317.7C376.162 313.496 379.052 277.837 368.68 256C364.02 246.19 355.79 235.907 344 235.474C326.586 234.834 312.229 259.449 314.185 275C315.591 286.181 327.895 294.984 339 292.47C363.747 286.867 343.646 258.934 338 247C349.017 243.6 355.737 251.59 360.215 261C367.132 275.532 366.588 296.91 351 305.442C330.513 316.656 305.601 298.923 300.478 279C289.627 236.798 331.436 203.819 370 219.453C394.596 229.425 402.249 254.503 398.246 279C392.329 315.217 362.785 364.429 321 364.429C310.208 364.429 298.619 359.76 289 355.219C276.408 349.275 264.553 342.501 255.174 332C239.189 314.105 232.349 291.269 224.999 269C217.244 245.504 209.007 222.567 196.719 201C186.539 183.133 173.407 167.273 158.92 152.754C155.315 149.141 147.377 138.565 141.318 140.847C135.95 142.869 140.599 151.238 143.109 153.485C160.394 168.964 172.446 182.706 180.309 205C195.474 248 199.108 300.639 234.09 333.715C245.064 344.091 258.178 352.411 272 358.424C283.443 363.403 294.712 367.685 307 370C304.465 374.113 304.128 376.489 306 381C298.936 381.083 291.585 389.2 302.005 390.852C316.598 393.165 336.454 388.462 351 386.08C383.654 380.734 418.123 370.302 441.961 345.985C482.461 304.671 485.66 239.897 518.026 193C537.042 165.446 562.407 143.605 591 126.449C603.333 119.049 617.002 113.913 629 106L629 104C618.048 100.989 604.005 108.998 594 113C560.043 126.583 530.458 147.167 507.665 176C463.096 232.381 461.264 320.219 395 358.988C383.972 365.441 372.334 370.014 360 373.265C344.471 377.359 328.058 380 312 380z"/>
<path style="fill:#f7d5bc; stroke:none;" d="M150 104L150 105L153 105L150 104M615.667 104.333L616.333 104.667L615.667 104.333M153 105L153 106L156 106L153 105M612.667 105.333L613.333 105.667L612.667 105.333M156.667 106.333L157.333 106.667L156.667 106.333M609 106L609 107L612 107L609 106M159.667 107.333L160.333 107.667L159.667 107.333M607.667 107.333L608.333 107.667L607.667 107.333M161.667 108.333L162.333 108.667L161.667 108.333M604.667 108.333L605.333 108.667L604.667 108.333M117 109L117 110L123 110L117 109M164.667 109.333L165.333 109.667L164.667 109.333M601.667 109.333L602.333 109.667L601.667 109.333M125 110L125 111L129 111L125 110M166.667 110.333L167.333 110.667L166.667 110.333M598 110L598 111L601 111L598 110M131 111L131 112L135 112L131 111M168.667 111.333L169.333 111.667L168.667 111.333M596.667 111.333L597.333 111.667L596.667 111.333M136 112L136 113L139 113L136 112M170.667 112.333L171.333 112.667L170.667 112.333M574 112L574 113L579 113L574 112M593 112L593 113L596 113L593 112M140 113L140 114L143 114L140 113M172.667 113.333L173.333 113.667L172.667 113.333M571 113L571 114L574 114L571 113M579 113L581 115L581 113L579 113M591.667 113.333L592.333 113.667L591.667 113.333M143 114L143 115L146 115L143 114M174.667 114.333L175.333 114.667L174.667 114.333M568 114L568 115L571 115L568 114M588 114L588 115L591 115L588 114M146 115L146 116L149 116L146 115M176.667 115.333L177.333 115.667L176.667 115.333M565 115L565 116L568 116L565 115M579 115L580 116L579 115M586.667 115.333L587.333 115.667L586.667 115.333M125 123L126 123C127.735 112.123 140.682 119.55 147 122C141.351 116.518 125.894 111.281 125 123M149 116L149 117L152 117L149 116M178 116L179 117L178 116M563.667 116.333L564.333 116.667L563.667 116.333M578 116L579 117L578 116M584.667 116.333L585.333 116.667L584.667 116.333z"/>
<path style="fill:#e99050; stroke:none;" d="M345 356L345 353C322.979 344.913 302.788 345.623 284 328.826C262.33 309.453 251.935 279.723 242.656 253C231.874 221.949 220.358 190.121 199.789 164C186.122 146.643 169.077 134.286 150 123.576C145.153 120.855 133.161 113.582 127.604 118.028C121.259 123.104 133.749 129.156 137 130.576C159.811 140.538 180.171 158.389 192.715 180C199.295 191.336 205.596 202.846 210.548 215C232.612 269.158 248.604 347.622 317 357.421C326.272 358.749 335.944 358.343 345 356z"/>
<path style="fill:#f7d5bc; stroke:none;" d="M152.667 117.333L153.333 117.667L152.667 117.333M179.667 117.333L180.333 117.667L179.667 117.333M561.667 117.333L562.333 117.667L561.667 117.333M577 117L578 118L577 117M582.667 117.333L583.333 117.667L582.667 117.333M154.667 118.333L155.333 118.667L154.667 118.333M181.667 118.333L182.333 118.667L181.667 118.333M556 119L556 120L561 119L556 119M576 118L577 119L576 118M580.667 118.333L581.333 118.667L580.667 118.333M625 118L625 119L631 119L625 118M156 119L156 120L159 120L156 119M183 119L184 120L183 119M562 125L564 127C547.22 134.023 533.413 147.135 520.961 160.004C489.012 193.022 466.11 240.724 454 285L455 285C471.019 243.7 485.949 200.414 516.17 167C527.457 154.52 539.762 143.072 554 134.053C558.92 130.936 570.784 126.851 572 121L575 122L574 120L577 121C572.427 118.2 566.481 123.134 562 125M578.667 119.333L579.333 119.667L578.667 119.333M621.667 119.333L622.333 119.667L621.667 119.333z"/>
<path style="fill:#b8b9ba; stroke:none;" d="M623 119L623 120L627 120L623 119z"/>
<path style="fill:#909294; stroke:none;" d="M627 119.598C603.492 120.727 605.482 156.515 629 154.903C652.359 153.302 650.414 118.473 627 119.598z"/>
<path style="fill:#b8b9ba; stroke:none;" d="M629 119L629 120L633 120L629 119z"/>
<path style="fill:#f7d5bc; stroke:none;" d="M633.667 119.333L634.333 119.667L633.667 119.333M159.667 120.333L160.333 120.667L159.667 120.333M185 120L186 121L185 120M554.667 120.333L555.333 120.667L554.667 120.333z"/>
<path style="fill:#ffffff; stroke:none;" d="M574.667 120.333L575.333 120.667L574.667 120.333z"/>
<path style="fill:#b8b9ba; stroke:none;" d="M619.667 120.333L620.333 120.667L619.667 120.333M635 120L636 121L635 120z"/>
<path style="fill:#f7d5bc; stroke:none;" d="M636 120L637 121L636 120M161.667 121.333L162.333 121.667L161.667 121.333M186.667 121.333L187.333 121.667L186.667 121.333M552.667 121.333L553.333 121.667L552.667 121.333z"/>
<path style="fill:#ffffff; stroke:none;" d="M572.667 121.333L573.333 121.667L572.667 121.333z"/>
<path style="fill:#f7d5bc; stroke:none;" d="M617 121L618 122L617 121z"/>
<path style="fill:#b8b9ba; stroke:none;" d="M618 121L619 122L618 121M626 121L626 122L630 122L626 121M637 121L638 122L637 121z"/>
<path style="fill:#f7d5bc; stroke:none;" d="M638 121L639 122L638 121M148 122L149 123L148 122M163.667 122.333L164.333 122.667L163.667 122.333M188 122L189 123L188 122M549.667 122.333L550.333 122.667L549.667 122.333z"/>
<path style="fill:#ffffff; stroke:none;" d="M564 125L564 126L572 123L564 125z"/>
<path style="fill:#b8b9ba; stroke:none;" d="M616 122L617 123L616 122M622.667 122.333L623.333 122.667L622.667 122.333z"/>
<path style="fill:#f7d5bc; stroke:none;" d="M624.667 122.333L625.333 122.667L624.667 122.333z"/>
<path style="fill:#ffffff; stroke:none;" d="M626 122.508C607.008 125.296 610.791 154.46 630 151.783C649.191 149.109 644.767 119.753 626 122.508z"/>
<path style="fill:#f7d5bc; stroke:none;" d="M630.667 122.333L631.333 122.667L630.667 122.333z"/>
<path style="fill:#b8b9ba; stroke:none;" d="M632.667 122.333L633.333 122.667L632.667 122.333M639 122L640 123L639 122z"/>
<path style="fill:#f7d5bc; stroke:none;" d="M149.667 123.333L150.333 123.667L149.667 123.333M165.667 123.333L166.333 123.667L165.667 123.333M189 123L190 124L189 123M547.667 123.333L548.333 123.667L547.667 123.333M614 123L615 124L614 123z"/>
<path style="fill:#b8b9ba; stroke:none;" d="M615 123L616 124L615 123M620 123L621 124L620 123z"/>
<path style="fill:#f7d5bc; stroke:none;" d="M621 123L622 124L621 123M634 123L635 124L634 123z"/>
<path style="fill:#b8b9ba; stroke:none;" d="M635 123L636 124L635 123M640 123L641 124L640 123z"/>
<path style="fill:#f7d5bc; stroke:none;" d="M126 124L127 125L126 124M151.667 124.333L152.333 124.667L151.667 124.333M167 124L168 125L167 124M190.667 124.333L191.333 124.667L190.667 124.333M545.667 124.333L546.333 124.667L545.667 124.333M594 124L595 125L594 124z"/>
<path style="fill:#b8b9ba; stroke:none;" d="M614 124L615 125L614 124M618 124L617 126L618 124z"/>
<path style="fill:#f7d5bc; stroke:none;" d="M619 124L620 125L619 124z"/>
<path style="fill:#b8b9ba; stroke:none;" d="M636 124L637 125L636 124M641 124L642 125L641 124z"/>
<path style="fill:#f7d5bc; stroke:none;" d="M127 125L128 126L127 125M153.667 125.333L154.333 125.667L153.667 125.333M168.667 125.333L169.333 125.667L168.667 125.333M192 125L193 126L192 125M543.667 125.333L544.333 125.667L543.667 125.333M592.667 125.333L593.333 125.667L592.667 125.333z"/>
<path style="fill:#b8b9ba; stroke:none;" d="M613 125L614 126L613 125z"/>
<path style="fill:#f7d5bc; stroke:none;" d="M618 125L619 126L618 125M637 125L640 128L637 125z"/>
<path style="fill:#b8b9ba; stroke:none;" d="M638 125L639 126L638 125M642 125L643 126L642 125z"/>
<path style="fill:#f7d5bc; stroke:none;" d="M128 126L129 127L128 126M155.667 126.333L156.333 126.667L155.667 126.333M170 126L171 127L170 126M193 126L194 127L193 126M541 126L542 127L541 126M556 128L556 129L561 127L556 128z"/>
<path style="fill:#ffffff; stroke:none;" d="M343 375L343 376C352.513 375.243 361.897 372.135 371 369.41C440.301 348.667 452.969 276.698 480.425 220C499.212 181.203 526.748 148.973 564 127C557.357 125.178 547.452 133.795 542 137.193C521.225 150.141 503.255 168.749 489.671 189C468.013 221.287 460.821 259.434 444.216 294C424.93 334.148 387.085 365.876 343 375z"/>
<path style="fill:#f7d5bc; stroke:none;" d="M590.667 126.333L591.333 126.667L590.667 126.333M612 126L611 128L612 126z"/>
<path style="fill:#b8b9ba; stroke:none;" d="M616 126L617 127L616 126z"/>
<path style="fill:#f7d5bc; stroke:none;" d="M626 126L626 127L631 127L626 126z"/>
<path style="fill:#b8b9ba; stroke:none;" d="M639 126L640 127L639 126z"/>
<path style="fill:#f7d5bc; stroke:none;" d="M643 126L644 127L643 126M129.667 127.333L130.333 127.667L129.667 127.333M157 127L158 128L157 127M171.667 127.333L172.333 127.667L171.667 127.333M194 127L195 128L194 127M539.667 127.333L540.333 127.667L539.667 127.333M589 127L590 128L589 127z"/>
<path style="fill:#b8b9ba; stroke:none;" d="M612 127L613 128L612 127M615 127L616 128L615 127z"/>
<path style="fill:#f7d5bc; stroke:none;" d="M623 127L624 128L623 127z"/>
<path style="fill:#b8b9ba; stroke:none;" d="M624.667 127.333L625.333 127.667L624.667 127.333z"/>
<path style="fill:#909294; stroke:none;" d="M636 141C633.275 142.182 630.131 144.823 627.018 144.419C619.529 143.446 620.118 131.456 627.018 129.97C629.91 129.347 632.673 131.627 635 133L636 132C628.444 122.468 614.728 130.678 619.707 141.956C622.943 149.286 633.838 148.281 636 141z"/>
<path style="fill:#b8b9ba; stroke:none;" d="M631 127L632 128L631 127z"/>
<path style="fill:#f7d5bc; stroke:none;" d="M632 127L633 128L632 127z"/>
<path style="fill:#b8b9ba; stroke:none;" d="M643 127L644 128L643 127z"/>
<path style="fill:#f7d5bc; stroke:none;" d="M131.667 128.333L132.333 128.667L131.667 128.333M158.667 128.333L159.333 128.667L158.667 128.333M173 128L174 129L173 128M195.667 128.333L196.333 128.667L195.667 128.333M537.667 128.333L538.333 128.667L537.667 128.333M587.667 128.333L588.333 128.667L587.667 128.333z"/>
<path style="fill:#b8b9ba; stroke:none;" d="M611 128L612 129L611 128z"/>
<path style="fill:#f7d5bc; stroke:none;" d="M615 128L616 129L615 128M621 128L620 130L621 128z"/>
<path style="fill:#b8b9ba; stroke:none;" d="M622 128L623 129L622 128M633 128L636 131L633 128z"/>
<path style="fill:#f7d5bc; stroke:none;" d="M634 128L635 129L634 128M640 128L641 129L640 128z"/>
<path style="fill:#b8b9ba; stroke:none;" d="M644.333 128.667L644.667 129.333L644.333 128.667z"/>
<path style="fill:#f7d5bc; stroke:none;" d="M133.667 129.333L134.333 129.667L133.667 129.333M160.667 129.333L161.333 129.667L160.667 129.333M174.667 129.333L175.333 129.667L174.667 129.333M197 129L198 130L197 129M535.667 129.333L536.333 129.667L535.667 129.333M554 129L555 130L554 129M586 129L587 130L586 129M610 129L611 130L610 129z"/>
<path style="fill:#b8b9ba; stroke:none;" d="M614 129L615 130L614 129M621 129L622 130L621 129M626 129L626 130L630 130L626 129z"/>
<path style="fill:#f7d5bc; stroke:none;" d="M635 129L636 130L635 129z"/>
<path style="fill:#b8b9ba; stroke:none;" d="M641 129L642 130L641 129z"/>
<path style="fill:#f7d5bc; stroke:none;" d="M135.667 130.333L136.333 130.667L135.667 130.333M162 130L163 131L162 130M176 130L177 131L176 130M198 130L199 131L198 130M533.667 130.333L534.333 130.667L533.667 130.333M552.667 130.333L553.333 130.667L552.667 130.333M584 130L585 131L584 130z"/>
<path style="fill:#b8b9ba; stroke:none;" d="M610.333 130.667L610.667 131.333L610.333 130.667z"/>
<path style="fill:#f7d5bc; stroke:none;" d="M614 130L615 131L614 130z"/>
<path style="fill:#b8b9ba; stroke:none;" d="M620 130L621 131L620 130M624 130L625 131L624 130z"/>
<path style="fill:#f7d5bc; stroke:none;" d="M625 130L626 131L625 130M630 130L631 131L630 130z"/>
<path style="fill:#b8b9ba; stroke:none;" d="M631 130L632 131L631 130z"/>
<path style="fill:#f7d5bc; stroke:none;" d="M641 130L642 131L641 130M645 130L646 131L645 130M138.667 131.333L139.333 131.667L138.667 131.333M163.667 131.333L164.333 131.667L163.667 131.333M177 131L178 132L177 131M199 131L203 134L199 131M531.667 131.333L532.333 131.667L531.667 131.333M550.667 131.333L551.333 131.667L550.667 131.333M582.667 131.333L583.333 131.667L582.667 131.333z"/>
<path style="fill:#b8b9ba; stroke:none;" d="M613 131L614 132L613 131M619 131L620 132L619 131M623 131L624 132L623 131M632 131L633 132L632 131z"/>
<path style="fill:#f7d5bc; stroke:none;" d="M636 131L633 133L633 134L636 131z"/>
<path style="fill:#b8b9ba; stroke:none;" d="M642 131L643 132L642 131M645 131L646 132L645 131z"/>
<path style="fill:#f7d5bc; stroke:none;" d="M140.667 132.333L141.333 132.667L140.667 132.333M165 132L166 133L165 132M178 132L179 133L178 132M530 132L531 133L530 132M548.667 132.333L549.333 132.667L548.667 132.333M581 132L582 133L581 132M609.333 132.667L609.667 133.333L609.333 132.667M613.333 132.667L613.667 133.333L613.333 132.667M618 132L619 133L618 132z"/>
<path style="fill:#b8b9ba; stroke:none;" d="M622 132L623 133L622 132M633 132L634 133L633 132M635 132L636 133L635 132z"/>
<path style="fill:#f7d5bc; stroke:none;" d="M642.333 132.667L642.667 133.333L642.333 132.667M646.333 132.667L646.667 133.333L646.333 132.667M142.667 133.333L143.333 133.667L142.667 133.333M166.667 133.333L167.333 133.667L166.667 133.333M179 133L180 134L179 133M528.667 133.333L529.333 133.667L528.667 133.333M547 133L548 134L547 133M579.667 133.333L580.333 133.667L579.667 133.333z"/>
<path style="fill:#b8b9ba; stroke:none;" d="M618 133L618 136L619 136L618 133z"/>
<path style="fill:#f7d5bc; stroke:none;" d="M622 133L623 134L622 133M144.667 134.333L145.333 134.667L144.667 134.333M168 134L169 135L168 134M180 134L181 135L180 134M203 134L204 135L203 134M526.667 134.333L527.333 134.667L526.667 134.333M545.667 134.333L546.333 134.667L545.667 134.333M578 134L579 135L578 134z"/>
<path style="fill:#b8b9ba; stroke:none;" d="M609 134L609 141L610 141L609 134M612 134L612 141L613 141L612 134M643 134L643 140L644 140L643 134M646 134L646 141L647 141L646 134z"/>
<path style="fill:#f7d5bc; stroke:none;" d="M146.667 135.333L147.333 135.667L146.667 135.333M169.667 135.333L170.333 135.667L169.667 135.333M181 135L182 136L181 135M204 135L205 136L204 135M522 136L522 137L526 136L522 136M544 135L545 136L544 135M576.667 135.333L577.333 135.667L576.667 135.333z"/>
<path style="fill:#b8b9ba; stroke:none;" d="M621 135L621 140L622 140L621 135z"/>
<path style="fill:#f7d5bc; stroke:none;" d="M148.667 136.333L149.333 136.667L148.667 136.333M171 136L172 137L171 136M182.667 136.333L183.333 136.667L182.667 136.333M205 136L206 137L205 136M542.667 136.333L543.333 136.667L542.667 136.333M575 136L576 137L575 136M150 137L151 138L150 137M172.667 137.333L173.333 137.667L172.667 137.333M184 137L185 138L184 137M206 137L207 138L206 137M521 137L522 138L521 137M540.667 137.333L541.333 137.667L540.667 137.333M573.667 137.333L574.333 137.667L573.667 137.333z"/>
<path style="fill:#b8b9ba; stroke:none;" d="M618 137L618 141L619 141L618 137z"/>
<path style="fill:#f7d5bc; stroke:none;" d="M151.667 138.333L152.333 138.667L151.667 138.333M174 138L175 139L174 138M185 138L186 139L185 138M207 138L208 139L207 138M519.667 138.333L520.333 138.667L519.667 138.333M539 138L540 139L539 138M572 138L573 139L572 138M141 139L141 140L144 140L141 139M153 139L154 140L153 139M175 139L176 140L175 139M186 139L187 140L186 139M208 139L209 140L208 139M518 139L519 140L518 139M537.667 139.333L538.333 139.667L537.667 139.333M570.667 139.333L571.333 139.667L570.667 139.333M139.667 140.333L140.333 140.667L139.667 140.333M144.667 140.333L145.333 140.667L144.667 140.333M155 140L156 141L155 140M176 140L180 143L176 140M187 140L188 141L187 140M209 140L210 141L209 140M516.667 140.333L517.333 140.667L516.667 140.333M536 140L537 141L536 140M569 140L570 141L569 140M633 140L634 141L633 140z"/>
<path style="fill:#b8b9ba; stroke:none;" d="M634 140L635 141L634 140z"/>
<path style="fill:#f7d5bc; stroke:none;" d="M635.667 140.333L636.333 140.667L635.667 140.333M146.667 141.333L147.333 141.667L146.667 141.333M156 141L157 142L156 141M188 141L189 142L188 141M210 141L211 142L210 141M514.667 141.333L515.333 141.667L514.667 141.333M535 141L536 142L535 141M568 141L569 142L568 141M609 141L610 142L609 141M613 141L614 142L613 141M618 141L619 142L618 141M622 141L625 144L622 141z"/>
<path style="fill:#b8b9ba; stroke:none;" d="M633 141L634 142L633 141M636.333 141.667L636.667 142.333L636.333 141.667z"/>
<path style="fill:#f7d5bc; stroke:none;" d="M642 141L643 142L642 141M646 141L647 142L646 141M138 142L138 149L139 149L138 142M148 142L149 143L148 142M157.667 142.333L158.333 142.667L157.667 142.333M189 142L190 143L189 142M211 142L214 146L211 142M513 142L514 143L513 142M533.667 142.333L534.333 142.667L533.667 142.333M566.667 142.333L567.333 142.667L566.667 142.333z"/>
<path style="fill:#b8b9ba; stroke:none;" d="M613.333 142.667L613.667 143.333L613.333 142.667M619 142L620 143L619 142M622 142L623 143L622 142M632 142L633 143L632 142M642 142L643 143L642 142M645.333 142.667L645.667 143.333L645.333 142.667z"/>
<path style="fill:#f7d5bc; stroke:none;" d="M149 143L150 144L149 143M159 143L160 144L159 143M180 143L181 144L180 143M190 143L191 144L190 143M512 143L513 144L512 143M532 143L533 144L532 143M565 143L566 144L565 143z"/>
<path style="fill:#b8b9ba; stroke:none;" d="M610 143L611 144L610 143z"/>
<path style="fill:#f7d5bc; stroke:none;" d="M619 143L620 144L619 143z"/>
<path style="fill:#b8b9ba; stroke:none;" d="M623 143L624 144L623 143M631 143L632 144L631 143z"/>
<path style="fill:#f7d5bc; stroke:none;" d="M636 143L637 144L636 143M150 144L151 145L150 144M160 144L161 145L160 144M181 144L182 145L181 144M191 144L192 145L191 144M510.667 144.333L511.333 144.667L510.667 144.333M531 144L532 145L531 144M564 144L565 145L564 144M610 144L611 145L610 144M614 144L615 145L614 144z"/>
<path style="fill:#b8b9ba; stroke:none;" d="M620 144L621 145L620 144M625 144L626 145L625 144z"/>
<path style="fill:#f7d5bc; stroke:none;" d="M626 144L626 145L630 145L626 144z"/>
<path style="fill:#b8b9ba; stroke:none;" d="M630 144L631 145L630 144z"/>
<path style="fill:#f7d5bc; stroke:none;" d="M635 144L636 145L635 144z"/>
<path style="fill:#b8b9ba; stroke:none;" d="M641 144L642 145L641 144z"/>
<path style="fill:#f7d5bc; stroke:none;" d="M645 144L646 145L645 144M151 145L152 146L151 145M161.667 145.333L162.333 145.667L161.667 145.333M182 145L183 146L182 145M192 145L193 146L192 145M509 145L510 146L509 145M529.667 145.333L530.333 145.667L529.667 145.333M562.667 145.333L563.333 145.667L562.667 145.333z"/>
<path style="fill:#b8b9ba; stroke:none;" d="M611 145L612 146L611 145M614 145L615 146L614 145M621 145L622 146L621 145M634 145L635 146L634 145z"/>
<path style="fill:#f7d5bc; stroke:none;" d="M640 145L641 146L640 145z"/>
<path style="fill:#b8b9ba; stroke:none;" d="M644 145L645 146L644 145z"/>
<path style="fill:#f7d5bc; stroke:none;" d="M152 146L156 149L152 146M163 146L164 147L163 146M183 146L184 147L183 146M193 146L194 147L193 146M214 146L215 147L214 146M507.667 146.333L508.333 146.667L507.667 146.333M528 146L529 147L528 146M561 146L562 147L561 146M611 146L612 147L611 146z"/>
<path style="fill:#b8b9ba; stroke:none;" d="M615 146L616 147L615 146M622.667 146.333L623.333 146.667L622.667 146.333M632 146L633 147L632 146z"/>
<path style="fill:#f7d5bc; stroke:none;" d="M633 146L634 147L633 146z"/>
<path style="fill:#b8b9ba; stroke:none;" d="M640 146L641 147L640 146z"/>
<path style="fill:#f7d5bc; stroke:none;" d="M644 146L645 147L644 146M164 147L165 148L164 147M184 147L194 157L184 147M194 147L197 150L194 147M215 147L216 148L215 147M506 147L507 148L506 147M527 147L528 148L527 147M560 147L561 148L560 147z"/>
<path style="fill:#b8b9ba; stroke:none;" d="M612 147L613 148L612 147M616 147L617 148L616 147M624 147L624 148L631 148L624 147z"/>
<path style="fill:#f7d5bc; stroke:none;" d="M631 147L632 148L631 147z"/>
<path style="fill:#b8b9ba; stroke:none;" d="M639 147L640 148L639 147M643 147L644 148L643 147z"/>
<path style="fill:#f7d5bc; stroke:none;" d="M165 148L166 149L165 148M216 148L217 149L216 148M503 150L506 148L503 150M526 148L527 149L526 148M559 148L560 149L559 148z"/>
<path style="fill:#b8b9ba; stroke:none;" d="M613 148L614 149L613 148M617 148L618 149L617 148M638 148L639 149L638 148M642 148L639 152L642 148z"/>
<path style="fill:#f7d5bc; stroke:none;" d="M139.333 149.667L139.667 150.333L139.333 149.667M156 149L161 154L156 149M166 149L167 150L166 149M217 149L218 150L217 149M523 151L526 149L523 151M554 153L559 149L554 153M613 149L614 150L613 149z"/>
<path style="fill:#b8b9ba; stroke:none;" d="M618 149L620 151L618 149z"/>
<path style="fill:#f7d5bc; stroke:none;" d="M619 149L620 150L619 149M636 149L637 150L636 149z"/>
<path style="fill:#b8b9ba; stroke:none;" d="M637 149L638 150L637 149z"/>
<path style="fill:#f7d5bc; stroke:none;" d="M642 149L643 150L642 149M167 150L168 151L167 150M197 150L199 153L197 150M218.333 150.667L218.667 151.333L218.333 150.667M502 150L503 151L502 150M614 150L615 151L614 150M620.667 150.333L621.333 150.667L620.667 150.333M634 150L635 151L634 150z"/>
<path style="fill:#b8b9ba; stroke:none;" d="M635.667 150.333L636.333 150.667L635.667 150.333z"/>
<path style="fill:#f7d5bc; stroke:none;" d="M641 150L642 151L641 150M140 151L141 152L140 151M168 151L172 154L168 151M499 153L502 151L499 153M522 151L523 152L522 151M615 151L617 153L615 151z"/>
<path style="fill:#b8b9ba; stroke:none;" d="M616 151L617 152L616 151M621 151L621 152L635 152L635 151L621 151z"/>
<path style="fill:#f7d5bc; stroke:none;" d="M623 151L624 152L623 151M632 151L633 152L632 151M640 151L641 152L640 151M141 152L142 153L141 152M219 152L220 153L219 152M521 152L522 153L521 152z"/>
<path style="fill:#b8b9ba; stroke:none;" d="M617 152L618 153L617 152M638 152L639 153L638 152z"/>
<path style="fill:#f7d5bc; stroke:none;" d="M142 153L143 154L142 153M199 153L200 154L199 153M220 153L221 154L220 153M498 153L499 154L498 153M520 153L521 154L520 153M553 153L554 154L553 153M618 153L619 154L618 153z"/>
<path style="fill:#b8b9ba; stroke:none;" d="M619 153L620 154L619 153M632 154L632 155L637 154L632 154z"/>
<path style="fill:#f7d5bc; stroke:none;" d="M637 153L638 154L637 153M143.667 154.333L144.333 154.667L143.667 154.333M161 154L166 160L161 154M172 154L173 155L172 154M200 154L201 155L200 154M221.333 154.667L221.667 155.333L221.333 154.667M494 157L498 154L494 157M514 159L520 154L514 159M552 154L553 155L552 154M620 154L621 155L620 154z"/>
<path style="fill:#b8b9ba; stroke:none;" d="M621.667 154.333L622.333 154.667L621.667 154.333z"/>
<path style="fill:#f7d5bc; stroke:none;" d="M635 154L636 155L635 154M145 155L146 156L145 155M173 155L174 156L173 155M201.333 155.667L201.667 156.333L201.333 155.667M551 155L552 156L551 155M623.667 155.333L624.333 155.667L623.667 155.333z"/>
<path style="fill:#b8b9ba; stroke:none;" d="M625 155L625 156L631 156L625 155z"/>
<path style="fill:#f7d5bc; stroke:none;" d="M631.667 155.333L632.333 155.667L631.667 155.333M146.667 156.333L147.333 156.667L146.667 156.333M174 156L175 157L174 156M222 156L223 157L222 156M550 156L551 157L550 156M148 157L149 158L148 157M175 157L176 158L175 157M194 157L195 158L194 157M202 157L203 158L202 157M223 157L224 158L223 157M493 157L494 158L493 157M549 157L550 158L549 157M149 158L150 159L149 158M176 158L177 159L176 158M195 158L196 159L195 158M203 158L204 159L203 158M224.333 158.667L224.667 159.333L224.333 158.667M492 158L493 159L492 158M547 158L547 160L549 158L547 158M150.667 159.333L151.333 159.667L150.667 159.333M177 159L178 160L177 159M196 159L197 160L196 159M204.333 159.667L204.667 160.333L204.333 159.667M491 159L492 160L491 159M513 159L507 167L513 159M152 160L153 161L152 160M166 160L167 161L166 160M178.333 160.667L178.667 161.333L178.333 160.667M197.333 160.667L197.667 161.333L197.333 160.667M225 160L226 161L225 160M490 160L491 161L490 160M546 160L547 161L546 160M153 161L154 162L153 161M167 161L168 162L167 161M205 161L206 162L205 161M226.333 161.667L226.667 162.333L226.333 161.667M486 164L490 161L486 164M543 163L546 161L543 163M154 162L155 163L154 162M168 162L169 163L168 162M179 162L180 163L179 162M198 162L199 163L198 162M206 162L207 163L206 162M155 163L156 164L155 163M169 163L170 164L169 163M180 163L181 164L180 163M199 163L200 164L199 163M207.333 163.667L207.667 164.333L207.333 163.667M227 163L228 164L227 163M542 163L543 164L542 163M156 164L157 165L156 164M170 164L171 165L170 164M181 164L182 165L181 164M200 164L201 165L200 164M228.333 164.667L228.667 165.333L228.333 164.667M485 164L486 165L485 164M541 164L542 165L541 164M157 165L158 166L157 165M171 165L172 166L171 165M182 165L183 166L182 165M201.333 165.667L201.667 166.333L201.333 165.667M208 165L209 166L208 165M484 165L485 166L484 165M540 165L541 166L540 165M158 166L159 167L158 166M172 166L174 169L172 166M183.333 166.667L183.667 167.333L183.333 166.667M209.333 166.667L209.667 167.333L209.333 166.667M229.333 166.667L229.667 167.333L229.333 166.667M483 166L484 167L483 166M539 166L540 167L539 166M159 167L160 168L159 167M202 167L203 168L202 167M482 167L483 168L482 167M506 167L507 168L506 167M538 167L539 168L538 167M160.333 168.667L160.667 169.333L160.333 168.667M184 168L185 169L184 168M203 168L204 169L203 168M210.333 168.667L210.667 169.333L210.333 168.667M230 168L231 169L230 168M481 168L482 169L481 168M505 168L506 169L505 168M537 168L533 174L537 168M174 169L175 170L174 169M185 169L186 170L185 169M204.333 169.667L204.667 170.333L204.333 169.667M231.333 169.667L231.667 170.333L231.333 169.667M480 169L481 170L480 169M504 169L505 170L504 169M161 170L162 171L161 170M175 170L176 171L175 170M186.333 170.667L186.667 171.333L186.333 170.667M211.333 170.667L211.667 171.333L211.333 170.667M479 170L480 171L479 170M503 170L504 171L503 170M162 171L163 172L162 171M176 171L177 172L176 171M205 171L206 172L205 171M232 171L233 172L232 171M478 171L476 175L478 171M502 171L503 172L502 171M163 172L164 173L163 172M177.333 172.667L177.667 173.333L177.333 172.667M187 172L188 173L187 172M206.333 172.667L206.667 173.333L206.333 172.667M212 172L213 173L212 172M233.333 172.667L233.667 173.333L233.333 172.667M501 172L500 175L501 172M164.333 173.667L164.667 174.333L164.333 173.667M188 173L190 176L188 173M213.333 173.667L213.667 174.333L213.333 173.667M178 174L179 175L178 174M207 174L208 175L207 174M234.333 174.667L234.667 175.333L234.333 174.667M532 174L533 175L532 174M165 175L166 176L165 175M179 175L180 176L179 175M208.333 175.667L208.667 176.333L208.333 175.667M214.333 175.667L214.667 176.333L214.333 175.667M475 175L476 176L475 175M499 175L500 176L499 175M531 175L532 176L531 175M166 176L167 177L166 176M180 176L182 179L180 176M190 176L192 179L190 176M235 176L236 177L235 176M474 176L475 177L474 176M498 176L499 177L498 176M530 176L531 177L530 176M209 177L210 178L209 177M215 177L216 178L215 177M473 177L474 178L473 177M497 177L498 178L497 177M529.333 177.667L529.667 178.333L529.333 177.667M167 178L168 179L167 178M210.333 178.667L210.667 179.333L210.333 178.667M236 178L237 179L236 178M472 178L473 179L472 178M496.333 178.667L496.667 179.333L496.333 178.667M168.333 179.667L168.667 180.333L168.333 179.667M182 179L183 180L182 179M192.333 179.667L192.667 180.333L192.333 179.667M216 179L217 180L216 179M237.333 179.667L237.667 180.333L237.333 179.667M471 179L470 182L471 179M528 179L529 180L528 179M183 180L184 181L183 180M211.333 180.667L211.667 181.333L211.333 180.667M217.333 180.667L217.667 181.333L217.333 180.667M495 180L496 181L495 180M527 180L528 181L527 180M169 181L170 182L169 181M184.333 181.667L184.667 182.333L184.333 181.667M193.333 181.667L193.667 182.333L193.333 181.667M238.333 181.667L238.667 182.333L238.333 181.667M494 181L493 184L494 181M526 181L527 182L526 181M170.333 182.667L170.667 183.333L170.333 182.667M212 182L213 183L212 182M218.333 182.667L218.667 183.333L218.333 182.667M469 182L470 183L469 182M525.333 182.667L525.667 183.333L525.333 182.667M185 183L186 184L185 183M194 183L195 184L194 183M213.333 183.667L213.667 184.333L213.333 183.667M239.333 183.667L239.667 184.333L239.333 183.667M468 183L469 184L468 183M171.333 184.667L171.667 185.333L171.333 184.667M186 184L187 185L186 184M195.333 184.667L195.667 185.333L195.333 184.667M219.333 184.667L219.667 185.333L219.333 184.667M467 184L466 187L467 184M492 184L493 185L492 184M524 184L525 185L524 184M187.333 185.667L187.667 186.333L187.333 185.667M214.333 185.667L214.667 186.333L214.333 185.667M240.333 185.667L240.667 186.333L240.333 185.667M491.333 185.667L491.667 186.333L491.333 185.667M523 185L524 186L523 185M172.333 186.667L172.667 187.333L172.333 186.667M196.333 186.667L196.667 187.333L196.333 186.667M220.333 186.667L220.667 187.333L220.333 186.667M522.333 186.667L522.667 187.333L522.333 186.667M188 187L189 188L188 187M215.333 187.667L215.667 188.333L215.333 187.667M241.333 187.667L241.667 188.333L241.333 187.667M465 187L466 188L465 187M490 187L491 188L490 187M173.333 188.667L173.667 189.333L173.333 188.667M189.333 188.667L189.667 189.333L189.333 188.667M197 188L198 189L197 188M221.333 188.667L221.667 189.333L221.333 188.667M464 188L465 189L464 188M489.333 188.667L489.667 189.333L489.333 188.667M521 188L522 189L521 188M216 189L217 190L216 189M242.333 189.667L242.667 190.333L242.333 189.667M463.333 189.667L463.667 190.333L463.333 189.667M520 189L521 190L520 189M174.333 190.667L174.667 191.333L174.333 190.667M190 190L191 191L190 190M198 190L199 191L198 190M217.333 190.667L217.667 191.333L217.333 190.667M222.333 190.667L222.667 191.333L222.333 190.667M488 190L489 191L488 190M519.333 190.667L519.667 191.333L519.333 190.667M191.333 191.667L191.667 192.333L191.333 191.667M243.333 191.667L243.667 192.333L243.333 191.667M462 191L461 194L462 191M487.333 191.667L487.667 192.333L487.333 191.667M175.333 192.667L175.667 193.333L175.333 192.667M199 192L200 193L199 192M218.333 192.667L218.667 193.333L218.333 192.667M223.333 192.667L223.667 193.333L223.333 192.667M518 192L519 193L518 192M192 193L193 194L192 193M200.333 193.667L200.667 194.333L200.333 193.667M244.333 193.667L244.667 194.333L244.333 193.667M486 193L487 194L486 193M517.333 193.667L517.667 194.333L517.333 193.667M176.333 194.667L176.667 195.333L176.333 194.667M193.333 194.667L193.667 195.333L193.333 194.667M219.333 194.667L219.667 195.333L219.333 194.667M224.333 194.667L224.667 195.333L224.333 194.667M460 194L461 195L460 194M485.333 194.667L485.667 195.333L485.333 194.667M201.333 195.667L201.667 196.333L201.333 195.667M245.333 195.667L245.667 196.333L245.333 195.667M459.333 195.667L459.667 196.333L459.333 195.667M516 195L517 196L516 195M177 196L177 199L178 199L177 196M194.333 196.667L194.667 197.333L194.333 196.667M220.333 196.667L220.667 197.333L220.333 196.667M225.333 196.667L225.667 197.333L225.333 196.667M484.333 196.667L484.667 197.333L484.333 196.667M515.333 196.667L515.667 197.333L515.333 196.667M202.333 197.667L202.667 198.333L202.333 197.667M246 197L246 200L247 200L246 197M458 197L459 198L458 197M195 198L196 199L195 198M221.333 198.667L221.667 199.333L221.333 198.667M226.333 198.667L226.667 199.333L226.333 198.667M457.333 198.667L457.667 199.333L457.333 198.667M483 198L484 199L483 198M514 198L515 199L514 198M196.333 199.667L196.667 200.333L196.333 199.667M203.333 199.667L203.667 200.333L203.333 199.667M482.333 199.667L482.667 200.333L482.333 199.667M513.333 199.667L513.667 200.333L513.333 199.667M178.333 200.667L178.667 201.333L178.333 200.667M222.333 200.667L222.667 201.333L222.333 200.667M227 200L227 203L228 203L227 200M247.333 200.667L247.667 201.333L247.333 200.667M456 200L455 203L456 200M197.333 201.667L197.667 202.333L197.333 201.667M204.333 201.667L204.667 202.333L204.333 201.667M481.333 201.667L481.667 202.333L481.333 201.667M512.333 201.667L512.667 202.333L512.333 201.667M179 202L179 205L180 205L179 202M223.333 202.667L223.667 203.333L223.333 202.667M248.333 202.667L248.667 203.333L248.333 202.667M198.333 203.667L198.667 204.333L198.333 203.667M205.333 203.667L205.667 204.333L205.333 203.667M228.333 203.667L228.667 204.333L228.333 203.667M332 205L332 206L360 205C351.32 201.324 340.982 203.865 332 205M454.333 203.667L454.667 204.333L454.333 203.667M480 203L479 207L480 207L480 203M511 203L512 204L511 203M224.333 204.667L224.667 205.333L224.333 204.667M249.333 204.667L249.667 205.333L249.333 204.667M510.333 204.667L510.667 205.333L510.333 204.667M180 205L180 208L181 208L180 205M199 205L200 206L199 205M206 205L206 208L207 208L206 205M229.333 205.667L229.667 206.333L229.333 205.667M360 205L360 206L364 206L360 205M453 205L454 206L453 205M225.333 206.667L225.667 207.333L225.333 206.667M329 206L329 207L332 207L329 206M364 206L364 207L373 209L364 206M452.333 206.667L452.667 207.333L452.333 206.667M509.333 206.667L509.667 207.333L509.333 206.667M200 207L201 208L200 207M230.333 207.667L230.667 208.333L230.333 207.667M250.333 207.667L250.667 208.333L250.333 207.667M326 207L326 208L329 208L326 207M478.333 207.667L478.667 208.333L478.333 207.667M181 208L181 211L182 211L181 208M201.333 208.667L201.667 209.333L201.333 208.667M207.333 208.667L207.667 209.333L207.333 208.667M226 208L226 211L227 211L226 208M321 209L321 210L326 209L321 209M451.333 208.667L451.667 209.333L451.333 208.667M508.333 208.667L508.667 209.333L508.333 208.667M231.333 209.667L231.667 210.333L231.333 209.667M251.333 209.667L251.667 210.333L251.333 209.667M373.667 209.333L374.333 209.667L373.667 209.333M477.333 209.667L477.667 210.333L477.333 209.667M202.333 210.667L202.667 211.333L202.333 210.667M208.333 210.667L208.667 211.333L208.333 210.667M320 210L321 211L320 210M375 210L375 211L378 211L375 210M450.333 210.667L450.667 211.333L450.333 210.667M507 210L508 211L507 210M182 211L182 214L183 214L182 211M227.333 211.667L227.667 212.333L227.333 211.667M252 211L252 214L253 214L252 211M318.667 211.333L319.333 211.667L318.667 211.333M378 211L379 212L378 211M476.333 211.667L476.667 212.333L476.333 211.667M203.333 212.667L203.667 213.333L203.333 212.667M209.333 212.667L209.667 213.333L209.333 212.667M232.333 212.667L232.667 213.333L232.333 212.667M316.667 212.333L317.333 212.667L316.667 212.333M379.667 212.333L380.333 212.667L379.667 212.333M449.333 212.667L449.667 213.333L449.333 212.667M506 212L507 213L506 212M228 213L228 216L229 216L228 213M315 213L316 214L315 213M381.667 213.333L382.333 213.667L381.667 213.333M475.333 213.667L475.667 214.333L475.333 213.667M505.333 213.667L505.667 214.333L505.333 213.667M183 214L183 217L184 217L183 214M204.333 214.667L204.667 215.333L204.333 214.667M210 214L210 217L211 217L210 214M233.333 214.667L233.667 215.333L233.333 214.667M253.333 214.667L253.667 215.333L253.333 214.667M312 216L315 214L312 216M336 215L336 216L357 216L336 215M383 214L386 216L383 214M448.333 214.667L448.667 215.333L448.333 214.667M474.333 215.667L474.667 216.333L474.333 215.667M504.333 215.667L504.667 216.333L504.333 215.667M205.333 216.667L205.667 217.333L205.333 216.667M229.333 216.667L229.667 217.333L229.333 216.667M234.333 216.667L234.667 217.333L234.333 216.667M311 216L312 217L311 216M333 216L333 217L336 217L333 216M357 216L357 217L362 217L357 216M386 216L389 218L386 216M447.333 216.667L447.667 217.333L447.333 216.667M211 217L211 220L212 220L211 217M254.333 217.667L254.667 218.333L254.333 217.667M310 217L311 218L310 217M330 217L330 218L333 218L330 217M362 217L362 218L365 218L362 217M473 217L472 221L473 221L473 217M503.333 217.667L503.667 218.333L503.333 217.667M184.333 218.667L184.667 219.333L184.333 218.667M206.333 218.667L206.667 219.333L206.333 218.667M230.333 218.667L230.667 219.333L230.333 218.667M309 218L310 219L309 218M328.667 218.333L329.333 218.667L328.667 218.333M365 218L365 219L368 219L365 218M389 218L390 219L389 218M446.333 218.667L446.667 219.333L446.333 218.667M235.333 219.667L235.667 220.333L235.333 219.667M255.333 219.667L255.667 220.333L255.333 219.667M308 219L309 220L308 219M326.667 219.333L327.333 219.667L326.667 219.333M368 219L368 220L371 220L368 219M390 219L396 225L390 219M502.333 219.667L502.667 220.333L502.333 219.667M207.333 220.667L207.667 221.333L207.333 220.667M212.333 220.667L212.667 221.333L212.333 220.667M307 220L308 221L307 220M324.667 220.333L325.333 220.667L324.667 220.333M371.667 220.333L372.333 220.667L371.667 220.333M445.333 220.667L445.667 221.333L445.333 220.667M185 221L185 224L186 224L185 221M231.333 221.667L231.667 222.333L231.333 221.667M236.333 221.667L236.667 222.333L236.333 221.667M256 221L256 224L257 224L256 221M306 221L307 222L306 221M322.667 221.333L323.333 221.667L322.667 221.333M373.667 221.333L374.333 221.667L373.667 221.333M471 221L471 224L472 224L471 221M501 221L500 226L501 226L501 221M208.333 222.667L208.667 223.333L208.333 222.667M213.333 222.667L213.667 223.333L213.333 222.667M305 222L306 223L305 222M321 222L322 223L321 222M375.667 222.333L376.333 222.667L375.667 222.333M444.333 222.667L444.667 223.333L444.333 222.667M232.333 223.667L232.667 224.333L232.333 223.667M237 223L237 226L238 226L237 223M304 223L305 224L304 223M317 226L321 223L317 226M377 223L380 225L377 223M186 224L186 227L187 227L186 224M209 224L209 227L210 227L209 224M214 224L214 227L215 227L214 224M257 224L257 227L258 227L257 224M303.333 224.667L303.667 225.333L303.333 224.667M443 224L443 227L444 227L443 224M470.333 224.667L470.667 225.333L470.333 224.667M380 225L383 227L380 225M396 225L397 226L396 225M233.333 226.667L233.667 227.333L233.333 226.667M238.333 226.667L238.667 227.333L238.333 226.667M302 226L303 227L302 226M316 226L317 227L316 226M397 226L398 227L397 226M469.333 226.667L469.667 227.333L469.333 226.667M499.333 226.667L499.667 227.333L499.333 226.667M210.333 227.667L210.667 228.333L210.333 227.667M215.333 227.667L215.667 228.333L215.333 227.667M258.333 227.667L258.667 228.333L258.333 227.667M301 227L302 228L301 227M315 227L316 228L315 227M383 227L384 228L383 227M398 227L400 230L398 227M442.333 227.667L442.667 228.333L442.333 227.667M187 228L187 231L188 231L187 228M239 228L240 233L241 233L239 228M300.333 228.667L300.667 229.333L300.333 228.667M314 228L315 229L314 228M384 228L385 229L384 228M468.333 228.667L468.667 229.333L468.333 228.667M498.333 228.667L498.667 229.333L498.333 228.667M211 229L211 232L212 232L211 229M216 229L216 232L217 232L216 229M234.333 229.667L234.667 230.333L234.333 229.667M259 229L259 232L260 232L259 229M313 229L314 230L313 229M385 229L386 230L385 229M441.333 229.667L441.667 230.333L441.333 229.667M299 230L300 231L299 230M312 230L311 233L312 230M386 230L387 231L386 230M400 230L402 233L400 230M467 230L467 233L468 233L467 230M497.333 230.667L497.667 231.333L497.333 230.667M188 231L188 234L189 234L188 231M235 231L235 234L236 234L235 231M298.333 231.667L298.667 232.333L298.333 231.667M387 231L388 232L387 231M440.333 231.667L440.667 232.333L440.333 231.667M212.333 232.667L212.667 233.333L212.333 232.667M217.333 232.667L217.667 233.333L217.333 232.667M260.333 232.667L260.667 233.333L260.333 232.667M388 232L389 233L388 232M496 232L496 235L497 235L496 232M241.333 233.667L241.667 234.333L241.333 233.667M297.333 233.667L297.667 234.333L297.333 233.667M310 233L309 236L310 233M389 233L391 236L389 233M402.333 233.667L402.667 234.333L402.333 233.667M439 233L439 236L440 236L439 233M466 233L465 238L466 238L466 233M213 234L213 237L214 237L213 234M218 234L218 237L219 237L218 234M236.333 234.667L236.667 235.333L236.333 234.667M261 234L261 237L262 237L261 234M342 234L342 235L345 235L342 234M189 235L189 238L190 238L189 235M242 235L243 240L244 240L242 235M296.333 235.667L296.667 236.333L296.333 235.667M335 236L335 237L342 236L335 236M345 235L345 236L354 238L345 235M403.333 235.667L403.667 236.333L403.333 235.667M495 235L494 240L495 240L495 235M308 236L309 237L308 236M391 236L392 237L391 236M438.333 236.667L438.667 237.333L438.333 236.667M214.333 237.667L214.667 238.333L214.333 237.667M219.333 237.667L219.667 238.333L219.333 237.667M237.333 237.667L237.667 238.333L237.333 237.667M262 237L262 240L263 240L262 237M295.333 237.667L295.667 238.333L295.333 237.667M307.333 237.667L307.667 238.333L307.333 237.667M333.667 237.333L334.333 237.667L333.667 237.333M392.333 237.667L392.667 238.333L392.333 237.667M404 237L405 242L406 242L404 237M190 238L190 241L191 241L190 238M330 240L333 238L330 240M354.667 238.333L355.333 238.667L354.667 238.333M437.333 238.667L437.667 239.333L437.333 238.667M464 238L463 244L464 244L464 238M220 239L220 242L221 242L220 239M294 239L294 242L295 242L294 239M306.333 239.667L306.667 240.333L306.333 239.667M356 239L357 240L356 239M393.333 239.667L393.667 240.333L393.333 239.667M215.333 240.667L215.667 241.333L215.333 240.667M238.333 240.667L238.667 241.333L238.333 240.667M244 240L244 243L245 243L244 240M263.333 240.667L263.667 241.333L263.333 240.667M329 240L330 241L329 240M357 240L358 241L357 240M436 240L436 243L437 243L436 240M493.333 240.667L493.667 241.333L493.333 240.667M191 241L191 245L192 245L191 241M305.333 241.667L305.667 242.333L305.333 241.667M328 241L329 242L328 241M358 241L359 242L358 241M394.333 241.667L394.667 242.333L394.333 241.667M216.333 242.667L216.667 243.333L216.333 242.667M221.333 242.667L221.667 243.333L221.333 242.667M239 242L239 245L240 245L239 242M264 242L264 245L265 245L264 242M293.333 242.667L293.667 243.333L293.333 242.667M327 242L328 243L327 242M359 242L362 245L359 242M406 242L406 245L407 245L406 242M492 242L492 245L493 245L492 242M245.333 243.667L245.667 244.333L245.333 243.667M304.333 243.667L304.667 244.333L304.333 243.667M326 243L327 244L326 243M395 243L396 250L397 250L395 243M435.333 243.667L435.667 244.333L435.333 243.667M222 244L222 247L223 247L222 244M292 244L289 278L290 278L290.439 258L292 244M325 244L323 248L325 244M462 244L462 247L463 247L462 244M192 245L192 249L193 249L192 245M217.333 245.667L217.667 246.333L217.333 245.667M240 245L240 248L241 248L240 245M246.333 245.667L246.667 246.333L246.333 245.667M265.333 245.667L265.667 246.333L265.333 245.667M303 245L303 248L304 248L303 245M342 245L342 246L346 246L342 245M362 245L363 246L362 245M407 245L407 249L408 249L407 245M434 245L434 248L435 248L434 245M491.333 245.667L491.667 246.333L491.333 245.667M339 246L339 247L342 247L339 246M346 246L346 247L349 247L346 246M363 246L365 249L363 246M223.333 247.667L223.667 248.333L223.333 247.667M247 247L247 250L248 250L247 247M266 247L266 250L267 250L266 247M338.333 247.667L338.667 248.333L338.333 247.667M349 247L350 248L349 247M461.333 247.667L461.667 248.333L461.333 247.667M218.333 248.667L218.667 249.333L218.333 248.667M241.333 248.667L241.667 249.333L241.333 248.667M302 248L302 251L303 251L302 248M322 248L321 251L322 248M350 248L353 250L350 248M433 248L433 251L434 251L433 248M490.333 248.667L490.667 249.333L490.333 248.667M193 249L193 253L194 253L193 249M224 249L224 252L225 252L224 249M339.333 249.667L339.667 250.333L339.333 249.667M365 249L367 252L365 249M408 249L408 254L409 254L408 249M460 249L460 252L461 252L460 249M242 250L242 253L243 253L242 250M248.333 250.667L248.667 251.333L248.333 250.667M267.333 250.667L267.667 251.333L267.333 250.667M353 250L356 254L353 250M397 250L397 284L398 284C398.44 273.756 402.037 259.473 397 250M489 250L489 253L490 253L489 250M219.333 251.667L219.667 252.333L219.333 251.667M301 251L301 254L302 254L301 251M320.333 251.667L320.667 252.333L320.333 251.667M340 251L341 252L340 251M432 251L432 254L433 254L432 251M225.333 252.667L225.667 253.333L225.333 252.667M249.333 252.667L249.667 253.333L249.333 252.667M268 252L268 255L269 255L268 252M341 252L343 255L341 252M367.333 252.667L367.667 253.333L367.333 252.667M459 252L459 255L460 255L459 252M194 253L194 257L195 257L194 253M243 253L243 256L244 256L243 253M319 253L320 254L319 253M488.333 253.667L488.667 254.333L488.333 253.667M220.333 254.667L220.667 255.333L220.333 254.667M226 254L226 257L227 257L226 254M250 254L250 257L251 257L250 254M318.333 254.667L318.667 255.333L318.333 254.667M356 254L357 255L356 254M368.333 254.667L368.667 255.333L368.333 254.667M409 254L408 286L409 286C409.788 276.02 413.015 263.566 409 254M431 254L430 259L431 259L431 254M269.333 255.667L269.667 256.333L269.333 255.667M300 255L300 260L301 260L300 255M343 255L345 258L343 255M357.333 255.667L357.667 256.333L357.333 255.667M458 255L458 258L459 258L458 255M487 255L487 258L488 258L487 255M244 256L244 259L245 259L244 256M317.333 256.667L317.667 257.333L317.333 256.667M330 256C324.978 263.06 320.464 289.84 337.852 282.254C347.519 278.036 334.652 259.457 330 256M369.333 256.667L369.667 257.333L369.333 256.667M195 257L195 260L196 260L195 257M221.333 257.667L221.667 258.333L221.333 257.667M227 257L227 260L228 260L227 257M251.333 257.667L251.667 258.333L251.333 257.667M358.333 257.667L358.667 258.333L358.333 257.667M270.333 258.667L270.667 259.333L270.333 258.667M316.333 258.667L316.667 259.333L316.333 258.667z"/>
<path style="fill:#ffffff; stroke:none;" d="M329 258C327.788 260.956 326.246 263.869 325.529 267C324.124 273.143 329.315 286.399 337.682 280.968C345.049 276.187 334.723 259.761 329 258z"/>
<path style="fill:#f7d5bc; stroke:none;" d="M345.333 258.667L345.667 259.333L345.333 258.667M370 258L370 261L371 261L370 258M457.333 258.667L457.667 259.333L457.333 258.667M486 258L486 261L487 261L486 258M245 259L245 262L246 262L245 259M252.333 259.667L252.667 260.333L252.333 259.667M359.333 259.667L359.667 260.333L359.333 259.667M429 259L429 263L430 263L429 259M222.333 260.667L222.667 261.333L222.333 260.667M228 260L228 263L229 263L228 260M271.333 260.667L271.667 261.333L271.333 260.667M315 260L314 266L315 266L315 260M346.333 260.667L346.667 261.333L346.333 260.667M456 260L456 263L457 263L456 260M196 261L196 264L197 264L196 261M299 261L299 275L300 275L299 261M360 261L361 296L362 296C364.865 285.804 366.767 270.092 360 261M371.333 261.667L371.667 262.333L371.333 261.667M485 261L485 264L486 264L485 261M223 262L223 265L224 265L223 262M246.333 262.667L246.667 263.333L246.333 262.667M253.333 262.667L253.667 263.333L253.333 262.667M272 262L272 265L273 265L272 262M347.333 262.667L347.667 263.333L347.333 262.667M229.333 263.667L229.667 264.333L229.333 263.667M372 263L372 267L373 267L372 263M428 263L427 268L428 268L428 263M455 263L455 266L456 266L455 263M197 264L197 267L198 267L197 264M254.333 264.667L254.667 265.333L254.333 264.667M348.333 264.667L348.667 265.333L348.333 264.667M484 264L483 269L484 269L484 264M224 265L224 268L225 268L224 265M230 265L230 268L231 268L230 265M247.333 265.667L247.667 266.333L247.333 265.667M273.333 265.667L273.667 266.333L273.333 265.667M255 266L255 269L256 269L255 266M313 266L313 277L314 277L313 266M349 266L349 269L350 269L349 266M454 266L454 269L455 269L454 266M248 267L248 270L249 270L248 267M274 267L274 270L275 270L274 267M373 267L374 291L375 291L373 267M198.333 268.667L198.667 269.333L198.333 268.667M225 268L225 271L226 271L225 268M231.333 268.667L231.667 269.333L231.333 268.667M426 268L426 271L427 271L426 268M256.333 269.667L256.667 270.333L256.333 269.667M350 269L350 273L351 273L350 269M453.333 269.667L453.667 270.333L453.333 269.667M482 269L482 272L483 272L482 269M232 270L232 273L233 273L232 270M249.333 270.667L249.667 271.333L249.333 270.667M275.333 270.667L275.667 271.333L275.333 270.667M199.333 271.667L199.667 272.333L199.333 271.667M226 271L226 274L227 274L226 271M257.333 271.667L257.667 272.333L257.333 271.667M425 271L425 274L426 274L425 271M452 271L452 274L453 274L452 271M276.333 272.667L276.667 273.333L276.333 272.667M481 272L480 277L481 277L481 272M233.333 273.667L233.667 274.333L233.333 273.667M250.333 273.667L250.667 274.333L250.333 273.667M258.333 273.667L258.667 274.333L258.333 273.667M351 273L351 282L352 282L351 273M200.333 274.667L200.667 275.333L200.333 274.667M227 274L227 278L228 278L227 274M277.333 274.667L277.667 275.333L277.333 274.667M424.333 274.667L424.667 275.333L424.333 274.667M451 274L451 277L452 277L451 274M251.333 275.667L251.667 276.333L251.333 275.667M259.333 275.667L259.667 276.333L259.333 275.667M234.333 276.667L234.667 277.333L234.333 276.667M278 276L278 279L279 279L278 276M300 276L300 280L301 280L300 276M423 276L423 279L424 279L423 276M201.333 277.667L201.667 278.333L201.333 277.667M260.333 277.667L260.667 278.333L260.333 277.667M314 277L314 280L315 280L314 277M450.333 277.667L450.667 278.333L450.333 277.667M479 277L479 281L480 281L479 277M228 278L228 281L229 281L228 278M235.333 278.667L235.667 279.333L235.333 278.667M252.333 278.667L252.667 279.333L252.333 278.667M290 278L290 283L291 283L290 278M261 279L261 282L262 282L261 279M279.333 279.667L279.667 280.333L279.333 279.667M422 279L422 282L423 282L422 279M449 279L449 282L450 282L449 279M202.333 280.667L202.667 281.333L202.333 280.667M253.333 280.667L253.667 281.333L253.333 280.667M301 280L301 283L302 283L301 280M315.333 280.667L315.667 281.333L315.333 280.667M229 281L229 284L230 284L229 281M236.333 281.667L236.667 282.333L236.333 281.667M280.333 281.667L280.667 282.333L280.333 281.667M478.333 281.667L478.667 282.333L478.333 281.667M254 282L254 285L255 285L254 282M262.333 282.667L262.667 283.333L262.333 282.667M316 282L317 283L316 282M350 282L350 285L351 285L350 282M421.333 282.667L421.667 283.333L421.333 282.667M448.333 282.667L448.667 283.333L448.333 282.667M203.333 283.667L203.667 284.333L203.333 283.667M237 283L237 286L238 286L237 283M281.333 283.667L281.667 284.333L281.333 283.667M291 283L291 287L292 287L291 283M317.333 283.667L317.667 284.333L317.333 283.667M477 283L477 286L478 286L477 283M230 284L230 287L231 287L230 284M263.333 284.667L263.667 285.333L263.333 284.667M302.333 284.667L302.667 285.333L302.333 284.667M396 284L396 288L397 288L396 284M420.333 284.667L420.667 285.333L420.333 284.667M447 284L446 289L447 289L447 284M255.333 285.667L255.667 286.333L255.333 285.667M282.333 285.667L282.667 286.333L282.333 285.667M318 285L319 286L318 285M349 285L348 288L349 285M204.333 286.667L204.667 287.333L204.333 286.667M238.333 286.667L238.667 287.333L238.333 286.667M264 286L265 287L264 286M303.333 286.667L303.667 287.333L303.333 286.667M319 286L320 287L319 286M407 286L407 291L408 291L407 286M419 286L419 289L420 289L419 286M453.333 286.667L453.667 287.333L453.333 286.667M476.333 286.667L476.667 287.333L476.333 286.667M231.333 287.667L231.667 288.333L231.333 287.667M256.333 287.667L256.667 288.333L256.333 287.667M265.333 287.667L265.667 288.333L265.333 287.667M283.333 287.667L283.667 288.333L283.333 287.667M292 287L292 290L293 290L292 287M320 287L321 288L320 287M205.333 288.667L205.667 289.333L205.333 288.667M239.333 288.667L239.667 289.333L239.333 288.667M304.333 288.667L304.667 289.333L304.333 288.667M321 288L324 290L321 288M347 288L348 289L347 288M395 288L395 293L396 293L395 288M452.333 288.667L452.667 289.333L452.333 288.667M475 288L475 291L476 291L475 288M257.333 289.667L257.667 290.333L257.333 289.667M266.333 289.667L266.667 290.333L266.333 289.667M284 289L285 290L284 289M346 289L347 290L346 289M418.333 289.667L418.667 290.333L418.333 289.667M445 289L443 296L444 296L445 289M206 290L206 293L207 293L206 290M232.333 290.667L232.667 291.333L232.333 290.667M240.333 290.667L240.667 291.333L240.333 290.667M285.333 290.667L285.667 291.333L285.333 290.667M293.333 290.667L293.667 291.333L293.333 290.667M305.333 290.667L305.667 291.333L305.333 290.667M324.667 290.333L325.333 290.667L324.667 290.333M342 291L342 292L346 291L342 291M451.333 290.667L451.667 291.333L451.333 290.667M258.333 291.667L258.667 292.333L258.333 291.667M267 291L268 292L267 291M326.667 291.333L327.333 291.667L326.667 291.333M373 291L373 295L374 295L373 291M406 291L406 294L407 294L406 291M417 291L417 294L418 294L417 291M474.333 291.667L474.667 292.333L474.333 291.667M241.333 292.667L241.667 293.333L241.333 292.667M268.333 292.667L268.667 293.333L268.333 292.667M286.333 292.667L286.667 293.333L286.333 292.667M294 292L294 295L295 295L294 292M306 292L307 293L306 292M328 292L328 293L332 293L328 292M339 292L339 293L342 293L339 292M450.333 292.667L450.667 293.333L450.333 292.667M207.333 293.667L207.667 294.333L207.333 293.667M233.333 293.667L233.667 294.333L233.333 293.667M259.333 293.667L259.667 294.333L259.333 293.667M307.333 293.667L307.667 294.333L307.333 293.667M332 293L332 294L339 294L332 293M394 293L394 296L395 296L394 293M473 293L473 296L474 296L473 293M242.333 294.667L242.667 295.333L242.333 294.667M269.333 294.667L269.667 295.333L269.333 294.667M287 294L288 295L287 294M405 294L405 298L406 298L405 294M416.333 294.667L416.667 295.333L416.333 294.667M449.333 294.667L449.667 295.333L449.333 294.667M208.333 295.667L208.667 296.333L208.333 295.667M234.333 295.667L234.667 296.333L234.333 295.667M260.333 295.667L260.667 296.333L260.333 295.667M288.333 295.667L288.667 296.333L288.333 295.667M295 295L296 296L295 295M308 295L309 296L308 295M372 295L372 298L373 298L372 295M243.333 296.667L243.667 297.333L243.333 296.667M270 296L271 297L270 296M296.333 296.667L296.667 297.333L296.333 296.667M309 296L310 297L309 296M360 296L359 299L360 296M393 296L393 299L394 299L393 296M415.333 296.667L415.667 297.333L415.333 296.667M442.333 296.667L442.667 297.333L442.333 296.667M448.333 296.667L448.667 297.333L448.333 296.667M472.333 296.667L472.667 297.333L472.333 296.667M209.333 297.667L209.667 298.333L209.333 297.667M261.333 297.667L261.667 298.333L261.333 297.667M271.333 297.667L271.667 298.333L271.333 297.667M289 297L291 300L289 297M310 297L311 298L310 297M235.333 298.667L235.667 299.333L235.333 298.667M244.333 298.667L244.667 299.333L244.333 298.667M297 298L298 299L297 298M311 298L312 299L311 298M371.333 298.667L371.667 299.333L371.333 298.667M404 298L404 301L405 301L404 298M414.333 298.667L414.667 299.333L414.333 298.667M441 298L440 301L441 298M447.333 298.667L447.667 299.333L447.333 298.667M471.333 298.667L471.667 299.333L471.333 298.667M210 299L210 302L211 302L210 299M262.333 299.667L262.667 300.333L262.333 299.667M272 299L274 302L272 299M298.333 299.667L298.667 300.333L298.333 299.667M312 299L313 300L312 299M358 299L359 300L358 299M392 299L392 302L393 302L392 299M236.333 300.667L236.667 301.333L236.333 300.667M245.333 300.667L245.667 301.333L245.333 300.667M291 300L293 303L291 300M313 300L316 302L313 300M357 300L358 301L357 300M370.333 300.667L370.667 301.333L370.333 300.667M413.333 300.667L413.667 301.333L413.333 300.667M446.333 300.667L446.667 301.333L446.333 300.667M470 300L470 303L471 303L470 300M263.333 301.667L263.667 302.333L263.333 301.667M299 301L300 302L299 301M356 301L357 302L356 301M403.333 301.667L403.667 302.333L403.333 301.667M439.333 301.667L439.667 302.333L439.333 301.667M211.333 302.667L211.667 303.333L211.333 302.667M237.333 302.667L237.667 303.333L237.333 302.667M246.333 302.667L246.667 303.333L246.333 302.667M274 302L275 303L274 302M300 302L301 303L300 302M316.667 302.333L317.333 302.667L316.667 302.333M355 302L356 303L355 302M369.333 302.667L369.667 303.333L369.333 302.667M391.333 302.667L391.667 303.333L391.333 302.667M412 302L409 310L410 310L412 302M445.333 302.667L445.667 303.333L445.333 302.667M264.333 303.667L264.667 304.333L264.333 303.667M275.333 303.667L275.667 304.333L275.333 303.667M293 303L294 304L293 303M301 303L302 304L301 303M318.667 303.333L319.333 303.667L318.667 303.333M353.667 303.333L354.333 303.667L353.667 303.333M402 303L402 306L403 306L402 303M438.333 303.667L438.667 304.333L438.333 303.667M469.333 303.667L469.667 304.333L469.333 303.667M212 304L213 305L212 304M247.333 304.667L247.667 305.333L247.333 304.667M294.333 304.667L294.667 305.333L294.333 304.667M302 304L303 305L302 304M320 304L320 305L323 305L320 304M352 304L353 305L352 304M368 304L367 307L368 304M390 304L389 309L390 309L390 304M444.333 304.667L444.667 305.333L444.333 304.667M213.333 305.667L213.667 306.333L213.333 305.667M238.333 305.667L238.667 306.333L238.333 305.667M265 305L266 306L265 305M276 305L277 306L276 305M303 305L304 306L303 305M323 305L323 306L326 306L323 305M346 306L346 307L352 306L346 306M437 305L436 308L437 305M468.333 305.667L468.667 306.333L468.333 305.667M248.333 306.667L248.667 307.333L248.333 306.667M266.333 306.667L266.667 307.333L266.333 306.667M277 306L279 309L277 306M295 306L296 307L295 306M304 306L305 307L304 306M326 306L326 307L330 307L326 306M401.333 306.667L401.667 307.333L401.333 306.667M443.333 306.667L443.667 307.333L443.333 306.667M214.333 307.667L214.667 308.333L214.333 307.667M239.333 307.667L239.667 308.333L239.333 307.667M296 307L297 308L296 307M305 307L306 308L305 307M330 307L330 308L346 308L330 307M366 307L367 308L366 307M467.333 307.667L467.667 308.333L467.333 307.667M249 308L251 311L249 308M267.333 308.667L267.667 309.333L267.333 308.667M297 308L298 309L297 308M306.667 308.333L307.333 308.667L306.667 308.333M365 308L366 309L365 308M400 308L400 311L401 311L400 308M435.333 308.667L435.667 309.333L435.333 308.667M442 308L443 309L442 308M215.333 309.667L215.667 310.333L215.333 309.667M240.333 309.667L240.667 310.333L240.333 309.667M279 309L280 310L279 309M298 309L305 316L298 309M308 309L309 310L308 309M364 309L365 310L364 309M388.333 309.667L388.667 310.333L388.333 309.667M441.333 309.667L441.667 310.333L441.333 309.667M466.333 309.667L466.667 310.333L466.333 309.667M268 310L269 311L268 310M280 310L282 313L280 310M309.667 310.333L310.333 310.667L309.667 310.333M363 310L364 311L363 310M408.333 310.667L408.667 311.333L408.333 310.667M434 310L435 311L434 310M216 311L217 312L216 311M241.333 311.667L241.667 312.333L241.333 311.667M251.333 311.667L251.667 312.333L251.333 311.667M269.333 311.667L269.667 312.333L269.333 311.667M311 311L312 312L311 311M362 311L363 312L362 311M387.333 311.667L387.667 312.333L387.333 311.667M399.333 311.667L399.667 312.333L399.333 311.667M433.333 311.667L433.667 312.333L433.333 311.667M440.333 311.667L440.667 312.333L440.333 311.667M465.333 311.667L465.667 312.333L465.333 311.667M217.333 312.667L217.667 313.333L217.333 312.667M312.667 312.333L313.333 312.667L312.667 312.333M360.667 312.333L361.333 312.667L360.667 312.333M407.333 312.667L407.667 313.333L407.333 312.667M242 313L243 314L242 313M252 313L254 316L252 313M270 313L271 314L270 313M282 313L283 314L282 313M314.667 313.333L315.333 313.667L314.667 313.333M359 313L360 314L359 313M386.333 313.667L386.667 314.333L386.333 313.667M398.333 313.667L398.667 314.333L398.333 313.667M432 313L433 314L432 313M439.333 313.667L439.667 314.333L439.333 313.667M464.333 313.667L464.667 314.333L464.333 313.667M218 314L219 315L218 314M243.333 314.667L243.667 315.333L243.333 314.667M271 314L272 315L271 314M283 314L284 315L283 314M316 314L316 315L321 316L321 315L316 314M357.667 314.333L358.333 314.667L357.667 314.333M406 314L405 317L406 314M431.333 314.667L431.667 315.333L431.333 314.667M219.333 315.667L219.667 316.333L219.333 315.667M272.333 315.667L272.667 316.333L272.333 315.667M284 315L285 316L284 315M355.667 315.333L356.333 315.667L355.667 315.333M385.333 315.667L385.667 316.333L385.333 315.667M397.333 315.667L397.667 316.333L397.333 315.667M438 315L439 316L438 315M463.333 315.667L463.667 316.333L463.333 315.667M244.333 316.667L244.667 317.333L244.333 316.667M254.333 316.667L254.667 317.333L254.333 316.667M285 316L286 317L285 316M305 316L306 317L305 316M321 316L321 317L324 317L321 316M352 316L352 317L355 317L352 316M430 316L431 317L430 316M437.333 316.667L437.667 317.333L437.333 316.667M220 317L221 318L220 317M273 317L274 318L273 317M286 317L287 318L286 317M306 317L307 318L306 317M324 317L324 318L329 318L324 317M348 317L348 318L352 318L348 317M384 317L383 320L384 317M396.333 317.667L396.667 318.333L396.333 317.667M404.333 317.667L404.667 318.333L404.333 317.667M429.333 317.667L429.667 318.333L429.333 317.667M462.333 317.667L462.667 318.333L462.333 317.667M221.333 318.667L221.667 319.333L221.333 318.667M245.333 318.667L245.667 319.333L245.333 318.667M255 318L256 319L255 318M274 318L275 319L274 318M287 318L288 319L287 318M307 318L308 319L307 318M329 318L329 319L348 319L329 318M436 318L435 321L436 318M256 319L258 322L256 319M275 319L276 320L275 319M288 319L289 320L288 319M308.667 319.333L309.333 319.667L308.667 319.333M395.333 319.667L395.667 320.333L395.333 319.667M403 319L404 320L403 319M428 319L429 320L428 319M461.333 319.667L461.667 320.333L461.333 319.667M222 320L223 321L222 320M246 320L247 321L246 320M276 320L278 323L276 320M289 320L290 321L289 320M310 320L311 321L310 320M382 320L381 323L382 320M402.333 320.667L402.667 321.333L402.333 320.667M427.333 320.667L427.667 321.333L427.333 320.667M223 321L224 322L223 321M247 321L249 324L247 321M290 321L291 322L290 321M311 321L312 322L311 321M394.333 321.667L394.667 322.333L394.333 321.667M434 321L435 322L434 321M460 321L461 322L460 321M224 322L226 325L224 322M258 322L259 323L258 322M291 322L292 323L291 322M312.667 322.333L313.333 322.667L312.667 322.333M401 322L402 323L401 322M426 322L427 323L426 322M433.333 322.667L433.667 323.333L433.333 322.667M459.333 322.667L459.667 323.333L459.333 322.667M259 323L261 326L259 323M278 323L279 324L278 323M292 323L296 326L292 323M314.667 323.333L315.333 323.667L314.667 323.333M380.333 323.667L380.667 324.333L380.333 323.667M393 323L394 324L393 323M400 323L399 326L400 323M425 323L426 324L425 323M249 324L250 325L249 324M279 324L280 325L279 324M316.667 324.333L317.333 324.667L316.667 324.333M392.333 324.667L392.667 325.333L392.333 324.667M424 324L423 327L424 324M432 324L433 325L432 324M458.333 324.667L458.667 325.333L458.333 324.667M226 325L227 326L226 325M250.333 325.667L250.667 326.333L250.333 325.667M280 325L281 326L280 325M318.667 325.333L319.333 325.667L318.667 325.333M379 325L380 326L379 325M431 325L430 328L431 325M227 326L228 327L227 326M261 326L262 327L261 326M281 326L282 327L281 326M296 326L297 327L296 326M320.667 326.333L321.333 326.667L320.667 326.333M378.333 326.667L378.667 327.333L378.333 326.667M391 326L392 327L391 326M398 326L399 327L398 326M457 326L458 327L457 326M228 327L231 331L228 327M251 327L252 328L251 327M262 327L264 330L262 327M282 327L283 328L282 327M297 327L300 329L297 327M322.667 327.333L323.333 327.667L322.667 327.333M390.333 327.667L390.667 328.333L390.333 327.667M397 327L398 328L397 327M422 327L423 328L422 327M456.333 327.667L456.667 328.333L456.333 327.667M252 328L253 329L252 328M283 328L284 329L283 328M324 328L324 329L327 329L324 328M377 328L378 329L377 328M396 328L395 331L396 328M421 328L422 329L421 328M429 328L430 329L429 328M253 329L255 332L253 329M284 329L287 331L284 329M300 329L301 330L300 329M327 329L327 330L330 330L327 329M376 329L375 332L376 329M389 329L390 330L389 329M420 329L421 330L420 329M428.333 329.667L428.667 330.333L428.333 329.667M455 329L456 330L455 329M264 330L265 331L264 330M301.667 330.333L302.333 330.667L301.667 330.333M330 330L330 331L334 331L330 330M388.333 330.667L388.667 331.333L388.333 330.667M419 330L418 333L419 330M454.333 330.667L454.667 331.333L454.333 330.667M231 331L232 332L231 331M265 331L266 332L265 331M287 331L288 332L287 331M303.667 331.333L304.333 331.667L303.667 331.333M335 331L335 332L340 332L335 331M394 331L395 332L394 331M427 331L428 332L427 331M232 332L233 333L232 332M255 332L256 333L255 332M266 332L267 333L266 332M288 332L289 333L288 332M305 332L306 333L305 332M342 332L342 333L361 333L342 332M374 332L375 333L374 332M387 332L388 333L387 332M393 332L394 333L393 332M426 332L427 333L426 332M453 332L454 333L453 332M233 333L234 334L233 333M256 333L257 334L256 333M267 333L268 334L267 333M289.667 333.333L290.333 333.667L289.667 333.333M306.667 333.333L307.333 333.667L306.667 333.333M362 333L363 334L362 333M373 333L370 338L373 333M386.333 333.667L386.667 334.333L386.333 333.667M392 333L393 334L392 333M417 333L418 334L417 333M425 333L426 334L425 333M452.333 333.667L452.667 334.333L452.333 333.667M234 334L235 335L234 334M257 334L258 335L257 334M268 334L269 335L268 334M291 334L292 335L291 334M308.667 334.333L309.333 334.667L308.667 334.333M363 334L364 337L365 337L365 334L363 334M391 334L392 335L391 334M416 334L417 335L416 334M424 334L425 335L424 334M235 335L238 337L235 335M258 335L259 336L258 335M269 335L270 336L269 335M292.667 335.333L293.333 335.667L292.667 335.333M310 335L310 336L313 336L310 335M385 335L386 336L385 335M390 335L391 336L390 335M413 338L416 335L413 338M423 335L424 336L423 335M451 335L452 336L451 335M259 336L260 337L259 336M270 336L271 337L270 336M294 336L295 337L294 336M313.667 336.333L314.333 336.667L313.667 336.333M384 336L385 337L384 336M389 336L390 337L389 336M422 336L414 345C417.689 343.278 422.093 340.398 422 336M450 336L451 337L450 336M238 337L239 338L238 337M260 337L262 339L262 337L260 337M271 337L272 338L271 337M295.667 337.333L296.333 337.667L295.667 337.333M315 337L315 338L318 338L315 337M363 337L364 338L363 337M383 337L382 340L383 337M388 337L389 338L388 337M449 337L450 338L449 337M239 338L240 339L239 338M272 338L273 339L272 338M297 338L300 340L297 338M318 338L318 339L326 340L318 338M361.667 338.333L362.333 338.667L361.667 338.333M369 338L370 339L369 338M387 338L388 339L387 338M412 338L413 339L412 338M448 338L446 342L448 338M240 339L241 340L240 339M262 339L265 341L262 339M273 339L274 340L273 339M359.667 339.333L360.333 339.667L359.667 339.333M368 339L369 340L368 339M386 339L387 340L386 339M411 339L412 340L411 339M241 340L242 341L241 340M274.667 340.333L275.333 340.667L274.667 340.333M300.667 340.333L301.333 340.667L300.667 340.333M326 340L326 341L332 341L326 340M332 341L332 342L359 341L332 341M367 340L368 341L367 340M381 340L382 341L381 340M385 340L386 341L385 340M408 342L411 340L408 342M242.667 341.333L243.333 341.667L242.667 341.333M265 341L266 342L265 341M276 341L277 342L276 341M302.667 341.333L303.333 341.667L302.667 341.333M366 341L367 342L366 341M380 341L381 342L380 341M384 341L385 342L384 341M244 342L245 343L244 342M266 342L267 343L266 342M277 342L278 343L277 342M304.667 342.333L305.333 342.667L304.667 342.333M365 342L366 343L365 342M379 342L375 349L381 346L379 342M383 342L384 343L383 342M407 342L408 343L407 342M445 342L446 343L445 342M245 343L246 344L245 343M267.667 343.333L268.333 343.667L267.667 343.333M278.667 343.333L279.333 343.667L278.667 343.333M307.667 343.333L308.333 343.667L307.667 343.333M364 343L365 344L364 343M382 343L383 344L382 343M406 343L407 344L406 343M444 343L445 344L444 343M246.667 344.333L247.333 344.667L246.667 344.333M269 344L270 345L269 344M280 344L281 345L280 344M309.667 344.333L310.333 344.667L309.667 344.333M363 344L364 345L363 344M381 344L382 345L381 344M405 344L406 345L405 344M443 344L444 345L443 344M248 345L249 346L248 345M270.667 345.333L271.333 345.667L270.667 345.333M281.667 345.333L282.333 345.667L281.667 345.333M312.667 345.333L313.333 345.667L312.667 345.333M362 345L363 346L362 345z"/>
<path style="fill:#ffffff; stroke:none;" d="M378 345L377 347L378 345z"/>
<path style="fill:#f7d5bc; stroke:none;" d="M403.667 345.333L404.333 345.667L403.667 345.333M413 345L414 346L413 345M442 345L443 346L442 345M249 346L252 348L249 346M272.667 346.333L273.333 346.667L272.667 346.333M283 346L284 347L283 346M315 346L315 347L318 347L315 346M361 346L362 347L361 346M402 346L403 347L402 346M412 346L413 347L412 346M441 346L442 347L441 346M274 347L275 348L274 347M284.667 347.333L285.333 347.667L284.667 347.333M319 347L319 348L322 348L319 347M358 349L361 347L358 349M401 347L402 348L401 347M411 347L412 348L411 347M440 347L441 348L440 347M252.667 348.333L253.333 348.667L252.667 348.333M275.667 348.333L276.333 348.667L275.667 348.333M286.667 348.333L287.333 348.667L286.667 348.333M323 348L323 349L328 349L323 348M399.667 348.333L400.333 348.667L399.667 348.333M410 348L411 349L410 348M439 348L440 349L439 348M254 349L255 350L254 349M277.667 349.333L278.333 349.667L277.667 349.333M288.667 349.333L289.333 349.667L288.667 349.333M329 349L329 350L335 350L329 349M357 349L358 350L357 349M398 349L399 350L398 349M407 351L410 349L407 351M438 349L439 350L438 349M255.667 350.333L256.333 350.667L255.667 350.333M279 350L280 351L279 350M290.667 350.333L291.333 350.667L290.667 350.333M336 350L336 351L340 351L336 350M356 350L357 351L356 350M396.667 350.333L397.333 350.667L396.667 350.333M437 350L438 351L437 350M257.667 351.333L258.333 351.667L257.667 351.333M281 351L282 352L281 351M292.667 351.333L293.333 351.667L292.667 351.333M341.667 351.333L342.333 351.667L341.667 351.333M354.667 351.333L355.333 351.667L354.667 351.333M395 351L396 352L395 351M406 351L407 352L406 351M434 353L437 351L434 353M259.667 352.333L260.333 352.667L259.667 352.333M283.667 352.333L284.333 352.667L283.667 352.333M294 352L294 353L297 353L294 352M343.667 352.333L344.333 352.667L343.667 352.333M351 354L354 352L351 354M393.667 352.333L394.333 352.667L393.667 352.333M404.667 352.333L405.333 352.667L404.667 352.333M261 353L262 354L261 353M285.667 353.333L286.333 353.667L285.667 353.333M297 353L297 354L300 354L297 353M345 353C340.533 360.652 325.65 358 318 358L318 359L348 357L345 353M392 353L393 354L392 353M403 353L404 354L403 353M433 353L434 354L433 353M262.667 354.333L263.333 354.667L262.667 354.333M287.667 354.333L288.333 354.667L287.667 354.333M300 354L300 355L303 355L300 354M350 354L351 355L350 354M390.667 354.333L391.333 354.667L390.667 354.333M401.667 354.333L402.333 354.667L401.667 354.333M432 354L433 355L432 354M264.667 355.333L265.333 355.667L264.667 355.333M289.667 355.333L290.333 355.667L289.667 355.333M303 355L303 356L311 357L303 355M348.667 355.333L349.333 355.667L348.667 355.333M388.667 355.333L389.333 355.667L388.667 355.333M400 355L401 356L400 355M429 357L432 355L429 357M266.667 356.333L267.333 356.667L266.667 356.333M291 356L291 357L294 357L291 356z"/>
<path style="fill:#ffffff; stroke:none;" d="M345 356L346 357L345 356z"/>
<path style="fill:#f7d5bc; stroke:none;" d="M385 358L388 356L385 358M398.667 356.333L399.333 356.667L398.667 356.333M268.667 357.333L269.333 357.667L268.667 357.333M294.667 357.333L295.333 357.667L294.667 357.333M311 357L311 358L318 358L311 357z"/>
<path style="fill:#ffffff; stroke:none;" d="M343 357L344 358L343 357z"/>
<path style="fill:#f7d5bc; stroke:none;" d="M397 357L398 358L397 357M428 357L429 358L428 357M270 358L270 359L273 359L270 358M296 358L296 359L299 359L296 358M383.667 358.333L384.333 358.667L383.667 358.333M395 358L396 359L395 358M425 360L428 358L425 360M273.667 359.333L274.333 359.667L273.667 359.333M299.667 359.333L300.333 359.667L299.667 359.333M340.667 359.333L341.333 359.667L340.667 359.333M381.667 359.333L382.333 359.667L381.667 359.333M393.667 359.333L394.333 359.667L393.667 359.333M275.667 360.333L276.333 360.667L275.667 360.333M302.667 360.333L303.333 360.667L302.667 360.333M338.667 360.333L339.333 360.667L338.667 360.333M379.667 360.333L380.333 360.667L379.667 360.333M391.667 360.333L392.333 360.667L391.667 360.333M424 360L425 361L424 360M277.667 361.333L278.333 361.667L277.667 361.333M305 361L305 362L308 362L305 361M335.667 361.333L336.333 361.667L335.667 361.333M377.667 361.333L378.333 361.667L377.667 361.333M389.667 361.333L390.333 361.667L389.667 361.333M422.667 361.333L423.333 361.667L422.667 361.333M280.667 362.333L281.333 362.667L280.667 362.333M308 362L308 363L312 363L308 362M331 362L331 363L334 363L331 362M375.667 362.333L376.333 362.667L375.667 362.333M387.667 362.333L388.333 362.667L387.667 362.333M420.667 362.333L421.333 362.667L420.667 362.333M282 363L282 364L285 364L282 363M312 363L312 364L317 364L312 363M325 363L325 364L330 364L325 363M373.667 363.333L374.333 363.667L373.667 363.333M385.667 363.333L386.333 363.667L385.667 363.333M419 363L420 364L419 363M285.667 364.333L286.333 364.667L285.667 364.333M319 364L319 365L323 365L319 364M371.667 364.333L372.333 364.667L371.667 364.333M383.667 364.333L384.333 364.667L383.667 364.333M417.667 364.333L418.333 364.667L417.667 364.333M288.667 365.333L289.333 365.667L288.667 365.333M369.667 365.333L370.333 365.667L369.667 365.333M381.667 365.333L382.333 365.667L381.667 365.333M415.667 365.333L416.333 365.667L415.667 365.333M291.667 366.333L292.333 366.667L291.667 366.333M366 366L366 367L369 367L366 366M379.667 366.333L380.333 366.667L379.667 366.333M413.667 366.333L414.333 366.667L413.667 366.333M294.667 367.333L295.333 367.667L294.667 367.333M364.667 367.333L365.333 367.667L364.667 367.333M376 367L376 368L379 368L376 367M412 367L413 368L412 367M296 368L296 369L299 369L296 368M362.667 368.333L363.333 368.667L362.667 368.333M374.667 368.333L375.333 368.667L374.667 368.333M410.667 368.333L411.333 368.667L410.667 368.333M300 369L300 370L307 372L300 369M358 369L358 370L362 370L358 369M370 369L370 370L373 370L370 369M407 369L407 370L410 370L407 369M356.667 370.333L357.333 370.667L356.667 370.333M367 370L367 371L370 371L367 370M405.667 370.333L406.333 370.667L405.667 370.333M353 371L353 372L356 372L353 371M363 371L363 372L367 372L363 371M403.667 371.333L404.333 371.667L403.667 371.333M304.333 372.667L304.667 373.333L304.333 372.667M350 372L350 373L353 373L350 372M360 372L360 373L363 373L360 372M401.667 372.333L402.333 372.667L401.667 372.333M346 373L346 374L350 374L346 373M356 373L356 374L360 374L356 373M398 373L398 374L401 374L398 373M303 374L303 378L304 378L303 374M343 374L343 375L346 375L343 374M352 374L352 375L355 375L352 374M396.667 374.333L397.333 374.667L396.667 374.333M312 379L312 380C318.919 380 335.2 381.521 340 376L346 377C338.021 372.314 321.336 378.994 312 379M347 375L347 376L351 376L347 375M393 375L393 376L396 376L393 375z"/>
<path style="fill:#ffffff; stroke:none;" d="M340 376L341 377L340 376z"/>
<path style="fill:#f7d5bc; stroke:none;" d="M390 376L390 377L393 377L390 376M387 377L387 378L390 378L387 377M304 378L305 379L304 378M384 378L384 379L387 379L384 378M305 379L300 380L300 381L305 379M381 379L381 380L384 380L381 379M377 380L377 381L380 381L377 380M296 384L299 381L296 384M374 381L374 382L377 382L374 381M370 382L370 383L373 383L370 382M366 383L366 384L369 384L366 383M295 384L295 388L296 388L295 384M361 384L361 385L365 385L361 384M354 385L354 386L360 386L354 385M348 386L348 387L354 387L348 386M339 387L339 388L348 388L339 387M296 388L296 390L298 390L296 388M330 388L330 389L339 389L330 388M320 389L320 390L330 390L320 389M298 390L299 391L298 390M313 390L313 391L320 391L313 390M300 391L300 392L313 392L300 391z"/>
</svg>
