<?xml version="1.0" standalone="yes"?>
<svg xmlns="http://www.w3.org/2000/svg" width="882" height="150">
<path style="fill:#fffefe; stroke:none;" d="M0 0L0 150L882 150L882 0L0 0z"/>
<path style="fill:#f1b78c; stroke:none;" d="M119 35L119 36L122 36L119 35M455 35L455 36L458 36L455 35M108 36L108 37L111 37L108 36z"/>
<path style="fill:#ea904f; stroke:none;" d="M97 86L97 85C85.492 85 74.0818 84.3138 63 88.0401C58.1374 89.6752 52.638 93.0537 53.2832 98.9961C54.0224 105.805 62.3978 108.143 68 109.331C82.2884 112.362 100.322 110.023 113 102.826C115.429 101.448 117.843 99.8385 119.786 97.8156C140.43 76.329 91.5979 68.6781 93.3866 51.0039C94.5283 39.7226 121.878 32.4838 128.338 42.2276C134.198 51.0662 113.446 52.9632 109 53C114.614 57.2534 127.07 54.4718 132.995 51.4421C136.754 49.5205 140.436 45.401 137.392 41.2137C128.302 28.71 94.6166 36.99 86.6528 47.1844C72.1241 65.7824 116.701 74.348 115.253 91C113.74 108.41 79.6663 112.691 68.044 105.005C54.8329 96.269 74.2045 88.1001 82 87.1698C86.9878 86.5745 91.974 86.0139 97 86z"/>
<path style="fill:#f1b78c; stroke:none;" d="M128.667 36.3333L129.333 36.6667L128.667 36.3333z"/>
<path style="fill:#bab9b9; stroke:none;" d="M298 36L301 55L302 55C302 48.3379 303.29 40.8885 298 36z"/>
<path style="fill:#f1b78c; stroke:none;" d="M445 36L445 37L448 37L445 36z"/>
<path style="fill:#ea904f; stroke:none;" d="M433 86L433 85C423.305 85 390.427 82.2676 390.427 98.0031C390.427 105.441 399.119 108.083 405 109.331C419.312 112.367 437.404 110.068 449.999 102.652C452.697 101.064 455.256 99.1062 457.291 96.7106C475.304 75.5041 429.291 68.4656 430.012 51.4252C430.512 39.6277 458.876 32.48 465.338 42.2276C471.107 50.9299 450.433 52.9633 446 53C451.58 57.2277 464.101 54.5116 469.981 51.4421C474.084 49.301 477.035 44.4795 473.471 40.3943C463.88 29.397 431.66 36.7099 424.133 47.1844C410.334 66.3893 452.073 73.899 452.586 90C453.164 108.119 417.418 111.908 406.005 105.583C391.529 97.5598 409.531 88.5503 418 87.2994C422.924 86.5721 428.023 86.0412 433 86z"/>
<path style="fill:#f1b78c; stroke:none;" d="M465.667 36.3333L466.333 36.6667L465.667 36.3333M103.667 37.3333L104.333 37.6667L103.667 37.3333M132.667 37.3333L133.333 37.6667L132.667 37.3333z"/>
<path style="fill:#bab9b9; stroke:none;" d="M296 37L286 52L287 52L296 37z"/>
<path style="fill:#8a8c8e; stroke:none;" d="M250 74C237.633 74.299 230.815 91.1851 221 97.9452C217.925 100.063 209.078 104.589 207.743 97.8912C207.062 94.4772 211.146 90.7642 212.647 88C215.117 83.4531 215.444 78.8881 214 74C202.58 79.9413 207.24 88.5647 201.397 96.8264C198.159 101.403 181.134 112.889 180.242 100.995C179.595 92.3814 187.057 82.3961 189 74C185.509 74.2879 182.019 74.7232 179.39 77.3032C171.502 85.0436 167.428 95.6632 158 102.362C150.089 107.983 145.018 103.681 148.4 95L151.424 87C153.046 82.6996 154.79 78.4345 156 74C144.359 74.5092 143.703 84.6106 140.193 94C138.518 98.4791 136.066 105.452 141.228 108.682C153.509 116.367 167.216 95.7291 175 90C173.987 92.63 172.853 95.2348 172.254 98C167.216 121.253 194.774 102.63 202 101.098C205.688 100.316 209.104 103.991 213 103.851C221.24 103.556 228.535 95.3519 234 90C232.974 93.0143 231.472 95.9339 230.634 99C224.859 120.131 253.366 102.322 259 99.7485C261.058 98.8086 263.718 98.856 265.303 100.708C267.773 103.593 264.432 109.863 263.63 113C261.396 121.731 260.242 130.28 263 139C279.952 132.433 277.752 117.034 274 103C290.915 107.376 299.406 98.8308 312 89C310.88 92.3169 309.446 95.5757 308.68 99C306.353 109.392 315.677 112.034 324 108.468C334.724 103.872 347.308 92.6684 352 82C343.571 87.9377 337.523 96.6486 329 102.557C326.337 104.403 321.714 107.689 318.333 105.728C314.646 103.589 318.106 97.7387 319.2 95C322.509 86.7179 323.716 78.1215 334 78L334 76L327 76L332 60C319.415 60.4087 322.422 75.9526 309 76L309 78L316 78C310.251 94.9124 291.979 102.653 276 99C281.814 77.2509 310.031 63.1412 299 37C284.517 44.0773 281.395 66.0869 274.559 79C271.506 84.7666 265.663 89.5041 261 93.9606C258.022 96.8071 243.172 111.333 239.071 104.667C236.571 100.603 242.369 91.8053 244.001 88C246.01 83.3151 248.354 78.8341 250 74z"/>
<path style="fill:#f1b78c; stroke:none;" d="M440.667 37.3333L441.333 37.6667L440.667 37.3333M469 37L470 38L469 37M100.667 38.3333L101.333 38.6667L100.667 38.3333M112 38L112 39L122 39L112 38M134.667 38.3333L135.333 38.6667L134.667 38.3333M437.667 38.3333L438.333 38.6667L437.667 38.3333M449 38L449 39L459 39L449 38M471.667 38.3333L472.333 38.6667L471.667 38.3333M97.6667 39.3333L98.3333 39.6667L97.6667 39.3333M107.667 39.3333L108.333 39.6667L107.667 39.3333M124.667 39.3333L125.333 39.6667L124.667 39.3333M136 39L137 40L136 39M434.667 39.3333L435.333 39.6667L434.667 39.3333M443 39L443 40L446 40L443 39M461.667 39.3333L462.333 39.6667L461.667 39.3333M473 39L474 40L473 39M95 40L96 41L95 40M104 40L105 41L104 40M126.667 40.3333L127.333 40.6667L126.667 40.3333M137 40L138 41L137 40M432 40L433 41L432 40M440.667 40.3333L441.333 40.6667L440.667 40.3333M463.667 40.3333L464.333 40.6667L463.667 40.3333M474 40L475 41L474 40M93 41L94 42L93 41M101.667 41.3333L102.333 41.6667L101.667 41.3333M128 41L129 42L128 41M138 41L139 42L138 41M430 41L431 42L430 41M438.667 41.3333L439.333 41.6667L438.667 41.3333M465 41L466 42L465 41M475 41L475 48L476 48L475 41M92 42L93 43L92 42M99.6667 42.3333L100.333 42.6667L99.6667 42.3333M129.333 42.6667L129.667 43.3333L129.333 42.6667M428.667 42.3333L429.333 42.6667L428.667 42.3333M436.667 42.3333L437.333 42.6667L436.667 42.3333M466 42L466 47L467 47L466 42M90 43L91 44L90 43M98 43L99 44L98 43M139 43L139 46L140 46L139 43M427 43L428 44L427 43M435 43L436 44L435 43M89 44L90 45L89 44M97 44L98 45L97 44M426 44L427 45L426 44M434 44L435 45L434 44M87 45L88 46L87 45M95 45L96 46L95 45M129.333 45.6667L129.667 46.3333L129.333 45.6667M424 45L423 48L424 45M432 45L433 46L432 45M86 46L87 47L86 46z"/>
<path style="fill:#bab9b9; stroke:none;" d="M293 46L284 74L285 74C286.053 68.8834 289.52 49.7977 295 49L293 46z"/>
<path style="fill:#f1b78c; stroke:none;" d="M431.333 46.6667L431.667 47.3333L431.333 46.6667M94 47L95 48L94 47M128 47L129 48L128 47M138 47L139 48L138 47M465 47L466 48L465 47M85 48L86 49L85 48M93.3333 48.6667L93.6667 49.3333L93.3333 48.6667M127 48L128 49L127 48M137 48L138 49L137 48z"/>
<path style="fill:#fffefe; stroke:none;" d="M293 48L283 79C291.399 73.0337 300.705 57.7916 293 48z"/>
<path style="fill:#f1b78c; stroke:none;" d="M422 48L422 60L423 60L422 48M430 48L430 56L431 56L430 48M464 48L465 49L464 48M474 48L475 49L474 48M126 49L127 50L126 49M136 49L137 50L136 49M463 49L464 50L463 49M473 49L474 50L473 49M84 50L85 51L84 50M124 50L125 51L124 50M135 50L136 51L135 50z"/>
<path style="fill:#bab9b9; stroke:none;" d="M295 50L295 54L296 54L295 50z"/>
<path style="fill:#f1b78c; stroke:none;" d="M461 50L462 51L461 50M472 50L473 51L472 50M120 51L120 52L123 52L120 51M133 51L134 52L133 51M457.667 51.3333L458.333 51.6667L457.667 51.3333M470 51L471 52L470 51M110 52L110 53L117 53L110 52M130.667 52.3333L131.333 52.6667L130.667 52.3333M447 52L447 53L454 53L447 52M467.667 52.3333L468.333 52.6667L467.667 52.3333M83.3333 53.6667L83.6667 54.3333L83.3333 53.6667M93.3333 53.6667L93.6667 54.3333L93.3333 53.6667M127.667 53.3333L128.333 53.6667L127.667 53.3333z"/>
<path style="fill:#bab9b9; stroke:none;" d="M285 53L286 54L285 53z"/>
<path style="fill:#f1b78c; stroke:none;" d="M445 53L446 54L445 53M464.667 53.3333L465.333 53.6667L464.667 53.3333M109 54L110 55L109 54M120 54L120 55L124 55L120 54z"/>
<path style="fill:#bab9b9; stroke:none;" d="M284.333 54.6667L284.667 55.3333L284.333 54.6667z"/>
<path style="fill:#f1b78c; stroke:none;" d="M446 54L447 55L446 54M457 54L457 55L461 55L457 54M94 56L95 57L94 56z"/>
<path style="fill:#bab9b9; stroke:none;" d="M248 56L244 63L245 63L248 56M283.333 56.6667L283.667 57.3333L283.333 56.6667M300 56L300 59L301 59L300 56z"/>
<path style="fill:#f1b78c; stroke:none;" d="M431 56L432 57L431 56z"/>
<path style="fill:#bab9b9; stroke:none;" d="M650 56L651 57L650 56z"/>
<path style="fill:#f1b78c; stroke:none;" d="M84 57L85 58L84 57M95 57L96 58L95 57z"/>
<path style="fill:#8a8c8e; stroke:none;" d="M245 63C250.022 64.5882 253.887 65.7418 256 60C250.947 57.6689 246.815 56.7618 245 63z"/>
<path style="fill:#bab9b9; stroke:none;" d="M250.667 57.3333L251.333 57.6667L250.667 57.3333z"/>
<path style="fill:#f1b78c; stroke:none;" d="M432.333 57.6667L432.667 58.3333L432.333 57.6667z"/>
<path style="fill:#bab9b9; stroke:none;" d="M648 57C645.914 61.6054 647.003 63.9573 652 65L652 64L647 63L648 57z"/>
<path style="fill:#8a8c8e; stroke:none;" d="M647 63C648.297 63.4103 649.693 63.9806 651.04 64.2269C662.2 66.266 649.713 49.9997 647 63z"/>
<path style="fill:#bab9b9; stroke:none;" d="M652 57L653 58L652 57M252.667 58.3333L253.333 58.6667L252.667 58.3333M282.333 58.6667L282.667 59.3333L282.333 58.6667M295 58L295 62L296 62L295 58M654.667 58.3333L655.333 58.6667L654.667 58.3333z"/>
<path style="fill:#f1b78c; stroke:none;" d="M85 59L86 60L85 59M96 59L97 60L96 59z"/>
<path style="fill:#bab9b9; stroke:none;" d="M255 59L256 60L255 59M327 59L327 60L332 63L333 63L334 60L327 59z"/>
<path style="fill:#f1b78c; stroke:none;" d="M433 59L434 60L433 59z"/>
<path style="fill:#bab9b9; stroke:none;" d="M656 59L657 60L656 59z"/>
<path style="fill:#f1b78c; stroke:none;" d="M97 60L98 61L97 60z"/>
<path style="fill:#bab9b9; stroke:none;" d="M256.333 60.6667L256.667 61.3333L256.333 60.6667M299.333 60.6667L299.667 61.3333L299.333 60.6667M324 60L324 62L326 60L324 60z"/>
<path style="fill:#f1b78c; stroke:none;" d="M423.333 60.6667L423.667 61.3333L423.333 60.6667M434 60L435 61L434 60z"/>
<path style="fill:#bab9b9; stroke:none;" d="M657 60L657 63L658 63L657 60z"/>
<path style="fill:#f1b78c; stroke:none;" d="M86 61L87 62L86 61M99 61L100 62L99 61z"/>
<path style="fill:#bab9b9; stroke:none;" d="M281 61L282 62L281 61z"/>
<path style="fill:#f1b78c; stroke:none;" d="M435.667 61.3333L436.333 61.6667L435.667 61.3333M87 62L88 63L87 62M100 62L101 63L100 62z"/>
<path style="fill:#bab9b9; stroke:none;" d="M255.333 62.6667L255.667 63.3333L255.333 62.6667M280.333 62.6667L280.667 63.3333L280.333 62.6667M298.333 62.6667L298.667 63.3333L298.333 62.6667M323 62L324 63L323 62z"/>
<path style="fill:#f1b78c; stroke:none;" d="M424 62L425 63L424 62M437 62L438 63L437 62M88 63L89 64L88 63M101 63L102 64L101 63z"/>
<path style="fill:#bab9b9; stroke:none;" d="M246 63L247 64L246 63M294 63L294 66L295 66L294 63M322 63L322 66L323 66L322 63M331.333 63.6667L331.667 64.3333L331.333 63.6667z"/>
<path style="fill:#f1b78c; stroke:none;" d="M425 63L426 64L425 63M438 63L439 64L438 63M89 64L90 65L89 64M102.667 64.3333L103.333 64.6667L102.667 64.3333z"/>
<path style="fill:#bab9b9; stroke:none;" d="M248.667 64.3333L249.333 64.6667L248.667 64.3333M254 64L255 65L254 64M297 64L297 67L298 67L297 64z"/>
<path style="fill:#f1b78c; stroke:none;" d="M426 64L427 65L426 64M440 64L441 65L440 64z"/>
<path style="fill:#bab9b9; stroke:none;" d="M656 64L657 65L656 64z"/>
<path style="fill:#f1b78c; stroke:none;" d="M90 65L91 66L90 65M104 65L105 66L104 65z"/>
<path style="fill:#bab9b9; stroke:none;" d="M279.333 65.6667L279.667 66.3333L279.333 65.6667M330 65L330 68L331 68L330 65z"/>
<path style="fill:#f1b78c; stroke:none;" d="M427 65L428 66L427 65M441 65L442 66L441 65M91 66L92 67L91 66M105 66L106 67L105 66z"/>
<path style="fill:#bab9b9; stroke:none;" d="M293.333 66.6667L293.667 67.3333L293.333 66.6667M321.333 66.6667L321.667 67.3333L321.333 66.6667z"/>
<path style="fill:#f1b78c; stroke:none;" d="M428 66L429 67L428 66M442 66L443 67L442 66M92 67L93 68L92 67M107 67L108 68L107 67z"/>
<path style="fill:#bab9b9; stroke:none;" d="M278.333 67.6667L278.667 68.3333L278.333 67.6667M296.333 67.6667L296.667 68.3333L296.333 67.6667z"/>
<path style="fill:#f1b78c; stroke:none;" d="M429 67L430 68L429 67M443.667 67.3333L444.333 67.6667L443.667 67.3333M94 68L95 69L94 68M108 68L109 69L108 68z"/>
<path style="fill:#bab9b9; stroke:none;" d="M292 68L293 69L292 68M320.333 68.6667L320.667 69.3333L320.333 68.6667M329 68L329 71L330 71L329 68z"/>
<path style="fill:#f1b78c; stroke:none;" d="M431 68L432 69L431 68M445 68L446 69L445 68M95 69L96 70L95 69M109 69L110 70L109 69z"/>
<path style="fill:#bab9b9; stroke:none;" d="M277 69L277 72L278 72L277 69M295 69L296 70L295 69z"/>
<path style="fill:#f1b78c; stroke:none;" d="M432 69L433 70L432 69M446 69L447 70L446 69M96 70L97 71L96 70M111 70L112 71L111 70z"/>
<path style="fill:#bab9b9; stroke:none;" d="M291 70L292 71L291 70M294.333 70.6667L294.667 71.3333L294.333 70.6667M319.333 70.6667L319.667 71.3333L319.333 70.6667z"/>
<path style="fill:#f1b78c; stroke:none;" d="M433 70L434 71L433 70M448 70L449 71L448 70M98 71L99 72L98 71M112 71L113 72L112 71z"/>
<path style="fill:#bab9b9; stroke:none;" d="M290.333 71.6667L290.667 72.3333L290.333 71.6667M328.333 71.6667L328.667 72.3333L328.333 71.6667z"/>
<path style="fill:#f1b78c; stroke:none;" d="M435 71L436 72L435 71M449 71L450 72L449 71M99 72L100 73L99 72M113 72L114 73L113 72z"/>
<path style="fill:#bab9b9; stroke:none;" d="M276.333 72.6667L276.667 73.3333L276.333 72.6667M293 72L294 73L293 72M318 72L318 75L319 75L318 72z"/>
<path style="fill:#f1b78c; stroke:none;" d="M436 72L437 73L436 72M450 72L451 73L450 72z"/>
<path style="fill:#bab9b9; stroke:none;" d="M537 72L537 73C539.587 77.2319 540.719 78.828 546 79L546 78L539 77L541 72L537 72z"/>
<path style="fill:#f1b78c; stroke:none;" d="M101 73L102 74L101 73M115 73L116 74L115 73z"/>
<path style="fill:#bab9b9; stroke:none;" d="M247 73L247 74L250 74L247 73M289 73L290 74L289 73M292 73L293 74L292 73M327 73C327.796 76.7159 330.637 76 334 76L334 75L327 73z"/>
<path style="fill:#f1b78c; stroke:none;" d="M438 73L439 74L438 73M452 73L453 74L452 73z"/>
<path style="fill:#bab9b9; stroke:none;" d="M495 73L495 74L498 74L495 73z"/>
<path style="fill:#8a8c8e; stroke:none;" d="M549 81C546.432 84.3821 543.475 87.4815 541.094 91C534.656 100.514 534.96 114.048 550 108.892C560.959 105.135 570.032 93.9683 578 86C578.382 91.9318 576.479 99.4884 579.318 104.956C585.154 116.198 600.857 106.704 606 100L607 100C616.443 110.7 628.443 95.7574 636 90C634.753 92.9999 633.1 95.9019 632.109 99C629.814 106.17 635.059 110.492 642 109.367C651.242 107.868 657.608 101.054 665 96C667.647 125.17 704.626 102.205 717 97C718.339 121.462 753.477 106.345 764 98.3241C767.313 95.7989 772.064 89.3859 776.17 88.5841C781.108 87.6198 797.441 97.8473 793.353 103.776C789.114 109.923 773.511 109.903 777 100C773.897 100.028 763.496 100.943 767.662 106.585C771.549 111.848 782.57 110.234 788 109.195C804.187 106.099 824.158 98.2169 830 81C819.635 88.4548 813.024 100.239 800 104C810.505 89.3375 784.026 90.8171 785.631 80.1049C786.627 73.4573 799.845 74.3174 798 83C802.156 82.1044 811.428 77.3522 802.941 74.1481C797.508 72.0971 790.259 73.4383 785 75.4684C780.225 77.3112 777.651 80.1092 774.545 84.0039C766.531 94.0498 755.519 103.064 743 106.572C735.25 108.743 727.742 106.611 726 98C734.87 97.2266 746.233 93.7284 752.941 87.6713C758.003 83.1012 758.219 76.1411 750.995 73.9429C725.066 66.052 713.213 105.952 688 107.39C665.781 108.658 678.341 81.2833 691 76.4985C699.22 73.3915 698.996 80.2485 695 85C702.108 87.0375 712.751 79.493 702.941 74.6528C683.933 65.2741 668.078 90.1825 656 99.7137C653.232 101.898 641.51 110.987 640.121 102.938C638.599 94.1104 649.437 82.771 651 74C639.709 74.5251 630.987 91.245 622 97.956C619.743 99.6415 610.399 104.643 610.192 98.061C610.105 95.2944 614.081 92.1056 615.557 89.9961C618.73 85.4601 620.52 80.4918 621 75C613.977 76.3589 607.392 82.0075 605.289 89C603.801 93.9431 605.338 97.6931 600.941 101.521C588.601 112.265 584.745 98.6546 586.615 88C587.436 83.3217 588.622 78.7427 589 74C576.334 75.6467 566.784 94.7912 556 102.401C541.594 112.568 546.528 96.4137 551.343 89C554.261 84.5075 557.375 80.1341 559 75C552.941 76.7194 539.971 82.8808 539 73C531.91 75.0138 533.013 81.0753 528.852 86C519.484 97.0864 491.791 119.614 481 99C490.238 96.0462 500.109 94.3038 507.906 88.0725C512.369 84.5057 514.778 78.7257 508.941 75.0895C494.442 66.0565 465.136 87.0853 474.457 103.895C484.141 121.36 514.721 102.793 524 94.7106C527.384 91.7626 530.263 87.236 534.17 85.0239C538.117 82.7892 544.538 82.0322 549 81z"/>
<path style="fill:#bab9b9; stroke:none;" d="M505.667 73.3333L506.333 73.6667L505.667 73.3333M535 73L536 74L535 73M649.667 73.3333L650.333 73.6667L649.667 73.3333M690 73L690 74L693 74L690 73M699 73L699 74L702 74L699 73M740 73L740 74L743 74L740 73M749 73L749 74L752 74L749 73M790 73L790 74L794 74L790 73M800 73L800 74L804 74L800 73z"/>
<path style="fill:#f1b78c; stroke:none;" d="M102 74L103 75L102 74M116 74L117 75L116 74z"/>
<path style="fill:#bab9b9; stroke:none;" d="M148 74L148 75L151 75L148 74M156.333 74.6667L156.667 75.3333L156.333 74.6667M182 74L182 75L185 75L182 74M189.333 74.6667L189.667 75.3333L189.333 74.6667M212 74L213 75L212 74M214 74L215 75L214 74M242.667 74.3333L243.333 74.6667L242.667 74.3333M288 74L289 75L288 74M291.333 74.6667L291.667 75.3333L291.333 74.6667z"/>
<path style="fill:#f1b78c; stroke:none;" d="M439 74L440 75L439 74M453 74L454 75L453 74z"/>
<path style="fill:#bab9b9; stroke:none;" d="M492.667 74.3333L493.333 74.6667L492.667 74.3333M508.667 74.3333L509.333 74.6667L508.667 74.3333M534 74L535 75L534 74M582 74L582 75L586 75L582 74M589 74L589 77L590 77L589 74M618 74L618 75L621 75L618 74M643 74L643 75L646 75L643 74M651.333 74.6667L651.667 75.3333L651.333 74.6667M686.667 74.3333L687.333 74.6667L686.667 74.3333M703 74L704 75L703 74M736.667 74.3333L737.333 74.6667L736.667 74.3333M753 74L754 75L753 74M786.667 74.3333L787.333 74.6667L786.667 74.3333M805 74L806 75L805 74z"/>
<path style="fill:#f1b78c; stroke:none;" d="M103 75L104 76L103 75M117 75L118 76L117 75z"/>
<path style="fill:#bab9b9; stroke:none;" d="M180 75L181 76L180 75M210 75L211 76L210 75M241 75L242 76L241 75M249.333 75.6667L249.667 76.3333L249.333 75.6667M275 75L275 78L276 78L275 75M283.333 75.6667L283.667 76.3333L283.333 75.6667M287 75L288 76L287 75M310 75L310 76L318 76L310 75z"/>
<path style="fill:#f1b78c; stroke:none;" d="M440 75L441 76L440 75M454 75L455 76L454 75z"/>
<path style="fill:#bab9b9; stroke:none;" d="M490 75L491 76L490 75M499.667 75.3333L500.333 75.6667L499.667 75.3333M510 75L511 76L510 75M533 75L534 76L533 75M556.667 75.3333L557.333 75.6667L556.667 75.3333M559.333 75.6667L559.667 76.3333L559.333 75.6667M580 75L581 76L580 75M617 75L618 76L617 75M621 75L621 78L622 78L621 75M642 75L643 76L642 75M684 75L685 76L684 75M693 75L693 76L697 76L693 75M705 75L706 76L705 75M734 75L735 76L734 75M744 75L745 76L744 75M755 75L756 76L755 75M783.667 75.3333L784.333 75.6667L783.667 75.3333M792 75L792 76L795 76L792 75M806 75L807 76L806 75z"/>
<path style="fill:#f1b78c; stroke:none;" d="M105 76L106 77L105 76M118 76L119 77L118 76z"/>
<path style="fill:#bab9b9; stroke:none;" d="M146 76L147 77L146 76M155.333 76.6667L155.667 77.3333L155.333 76.6667M179 76L180 77L179 76M188 76L188 79L189 79L188 76M209 76L210 77L209 76M215 76L215 83L216 83L215 76M240 76L241 77L240 76M286 76L287 77L286 76M290 76L291 77L290 76M308 76L315 81L316 81L308 76M334.333 76.6667L334.667 77.3333L334.333 76.6667z"/>
<path style="fill:#f1b78c; stroke:none;" d="M442 76L443 77L442 76M455 76L456 77L455 76z"/>
<path style="fill:#bab9b9; stroke:none;" d="M488 76L489 77L488 76M482 96L483 96C484.257 87.6481 489.851 79.7703 498 77C489.249 74.7115 482.611 89.0518 482 96z"/>
<path style="fill:#fffefe; stroke:none;" d="M483 96C486.385 95.0392 489.798 94.1655 493 92.6759C496.394 91.097 510.361 80.6414 501.682 76.7824C491.96 72.4596 483.633 88.8071 483 96z"/>
<path style="fill:#bab9b9; stroke:none;" d="M502.667 76.3333L503.333 76.6667L502.667 76.3333M511 76L512 77L511 76M532 76L533 77L532 76M552.667 76.3333L553.333 76.6667L552.667 76.3333M579 76L579 80L580 80L579 76M615 76L616 77L615 76M641 76L641 79L642 79L641 76M681.667 76.3333L682.333 76.6667L681.667 76.3333M690.667 76.3333L691.333 76.6667L690.667 76.3333M698 76L699 77L698 76M706 76L707 77L706 76M732 76L733 77L732 76M740.667 76.3333L741.333 76.6667L740.667 76.3333z"/>
<path style="fill:#fffefe; stroke:none;" d="M727 96C730.675 94.9571 734.539 94.1103 738 92.4568C741.557 90.7574 754.681 79.9937 745.851 76.6435C735.84 72.8453 728.104 88.6334 727 96z"/>
<path style="fill:#bab9b9; stroke:none;" d="M747 76L748 77L747 76M756 76L757 77L756 76M781.667 76.3333L782.333 76.6667L781.667 76.3333M788 76L788 77L791 77L788 76M796.667 76.3333L797.333 76.6667L796.667 76.3333M807 76L807 79L808 79L807 76z"/>
<path style="fill:#f1b78c; stroke:none;" d="M106 77L107 78L106 77M119 77L120 78L119 77z"/>
<path style="fill:#bab9b9; stroke:none;" d="M178 77L179 78L178 77M208 77L209 78L208 77M239.333 77.6667L239.667 78.3333L239.333 77.6667M285 77L286 78L285 77M289 77L290 78L289 77z"/>
<path style="fill:#f1b78c; stroke:none;" d="M443 77L444 78L443 77M456 77L457 78L456 77z"/>
<path style="fill:#bab9b9; stroke:none;" d="M486 77L487 78L486 77M504 77L504 84L505 84L504 77M512 77L513 78L512 77M531 77L531 84L532 84L531 77M547 77L547 78L551 78L547 77M558.333 77.6667L558.667 78.3333L558.333 77.6667M614 77L615 78L614 77M650 77L651 78L650 77M680 77L681 78L680 77M688 77L689 78L688 77M730 77L731 78L730 77M738 77L739 78L738 77M748 77L749 78L748 77M780 77L781 78L780 77M786 77L787 78L786 77z"/>
<path style="fill:#f1b78c; stroke:none;" d="M107 78L108 79L107 78M120 78L121 79L120 78z"/>
<path style="fill:#bab9b9; stroke:none;" d="M145.333 78.6667L145.667 79.3333L145.333 78.6667M154.333 78.6667L154.667 79.3333L154.333 78.6667M207 78L208 79L207 78M248 78L249 79L248 78M274.333 78.6667L274.667 79.3333L274.333 78.6667M282 78L282 80L284 80L282 78M284 78L285 79L284 78M288 78L289 79L288 78M326 78L326 79L334 79L326 78z"/>
<path style="fill:#f1b78c; stroke:none;" d="M444 78L445 79L444 78M457 78L458 79L457 78z"/>
<path style="fill:#bab9b9; stroke:none;" d="M484.667 78.3333L485.333 78.6667L484.667 78.3333M513 78L513 83L514 83L513 78M588 78L588 82L589 82L588 78M612 78L613 79L612 78M678 78L679 79L678 78M686.667 78.3333L687.333 78.6667L686.667 78.3333M699.333 78.6667L699.667 79.3333L699.333 78.6667M707 78L707 82L708 82L707 78M729 78L730 79L729 78M736.667 78.3333L737.333 78.6667L736.667 78.3333M757 78L757 83L758 83L757 78M778 78L779 79L778 78M785 78L786 79L785 78M799.333 78.6667L799.667 79.3333L799.333 78.6667z"/>
<path style="fill:#f1b78c; stroke:none;" d="M109 79L110 80L109 79M121 79L122 80L121 79z"/>
<path style="fill:#bab9b9; stroke:none;" d="M177 79L178 80L177 79M187.333 79.6667L187.667 80.3333L187.333 79.6667M206 79L207 80L206 79M238.333 79.6667L238.667 80.3333L238.333 79.6667M287 79L288 80L287 79M325 79L326 80L325 79z"/>
<path style="fill:#f1b78c; stroke:none;" d="M446 79L447 80L446 79M458 79L459 80L458 79z"/>
<path style="fill:#bab9b9; stroke:none;" d="M483 79L484 80L483 79M557 79L558 80L557 79M611 79L612 80L611 79M620 79L620 82L621 82L620 79M640.333 79.6667L640.667 80.3333L640.333 79.6667M649 79L650 80L649 79M676 79L677 80L676 79M685 79L686 80L685 79M727 79L728 80L727 79M735 79L736 80L735 79M777 79L778 80L777 79M784 79L784 82L785 82L784 79z"/>
<path style="fill:#f1b78c; stroke:none;" d="M110 80L111 81L110 80M122 80L123 81L122 80z"/>
<path style="fill:#bab9b9; stroke:none;" d="M144 80L144 83L145 83L144 80M176.333 80.6667L176.667 81.3333L176.333 80.6667M205.333 80.6667L205.667 81.3333L205.333 80.6667M247.333 80.6667L247.667 81.3333L247.333 80.6667M273.333 80.6667L273.667 81.3333L273.333 80.6667M286 80L287 81L286 80z"/>
<path style="fill:#f1b78c; stroke:none;" d="M447 80L448 81L447 80M459.333 80.6667L459.667 81.3333L459.333 80.6667z"/>
<path style="fill:#bab9b9; stroke:none;" d="M481.667 80.3333L482.333 80.6667L481.667 80.3333M556.333 80.6667L556.667 81.3333L556.333 80.6667M578.333 80.6667L578.667 81.3333L578.333 80.6667M610 80L611 81L610 80M675 80L676 81L675 80M684 80L685 81L684 80M726 80L727 81L726 80M734 80L735 81L734 80M776 80L777 81L776 80M805 80L806 81L805 80M829 80L831 82L831 80L829 80z"/>
<path style="fill:#f1b78c; stroke:none;" d="M111 81L112 82L111 81M123.333 81.6667L123.667 82.3333L123.333 81.6667z"/>
<path style="fill:#bab9b9; stroke:none;" d="M153.333 81.6667L153.667 82.3333L153.333 81.6667M237 81L238 82L237 81M285 81L286 82L285 81M314.333 81.6667L314.667 82.3333L314.333 81.6667M324 81L324 84L325 84L324 81M351 81L351 85L352 85L351 81z"/>
<path style="fill:#f1b78c; stroke:none;" d="M448 81L449 82L448 81z"/>
<path style="fill:#bab9b9; stroke:none;" d="M480 81L481 82L480 81M546 81L546 85L547 85L549 81L546 81M609 81L610 82L609 81M639 81L640 82L639 81M648.333 81.6667L648.667 82.3333L648.333 81.6667M674 81L675 82L674 81M683 81L684 82L683 81M698 81L699 82L698 81M725 81L726 82L725 81M733 81L734 82L733 81M798 81L799 82L798 81M804 81L805 82L804 81M828 81L829 82L828 81M175.333 82.6667L175.667 83.3333L175.333 82.6667M186.333 82.6667L186.667 83.3333L186.333 82.6667M204.333 82.6667L204.667 83.3333L204.333 82.6667M236.333 82.6667L236.667 83.3333L236.333 82.6667M246.333 82.6667L246.667 83.3333L246.333 82.6667M272 82L273 83L272 82M284 82L285 83L284 82M350 82L351 83L350 82z"/>
<path style="fill:#f1b78c; stroke:none;" d="M449.333 82.6667L449.667 83.3333L449.333 82.6667M460.333 82.6667L460.667 83.3333L460.333 82.6667z"/>
<path style="fill:#bab9b9; stroke:none;" d="M479 82L480 83L479 82M543.667 82.3333L544.333 82.6667L543.667 82.3333M555 82L556 83L555 82M577 82L578 83L577 82M608 82L609 83L608 82M619.333 82.6667L619.667 83.3333L619.333 82.6667M638 82L637 84L639 84L638 82M673 82L674 83L673 82M682 82L683 83L682 82M697 82L698 83L697 82M724 82L725 83L724 82M732 82L733 83L732 82M748.333 82.6667L748.667 83.3333L748.333 82.6667M775.333 82.6667L775.667 83.3333L775.333 82.6667M797 82L798 83L797 82M800 82L800 83L803 83L800 82M827 82L828 83L827 82z"/>
<path style="fill:#f1b78c; stroke:none;" d="M112 83L113 84L112 83M124 83L124 87L125 87L124 83z"/>
<path style="fill:#bab9b9; stroke:none;" d="M143.333 83.6667L143.667 84.3333L143.333 83.6667M271 83L272 84L271 83M283 83L284 84L283 83M313 83L314 84L313 83M349 83L350 84L349 83M478 83L479 84L478 83M512 83L511 86L512 83M540.667 83.3333L541.333 83.6667L540.667 83.3333M576 83L577 84L576 83M587 83L587 87L588 87L587 83M607.333 83.6667L607.667 84.3333L607.333 83.6667M647.333 83.6667L647.667 84.3333L647.333 83.6667M672 83L673 84L672 83M681 83L682 84L681 83M696 83L697 84L696 83M706 83L707 84L706 83M723 83L724 84L723 83M786 83L787 84L786 83M826 83L827 84L826 83M829 83L830 84L829 83z"/>
<path style="fill:#f1b78c; stroke:none;" d="M78 84L78 85L97 85L78 84M113 84L114 85L113 84z"/>
<path style="fill:#bab9b9; stroke:none;" d="M152.333 84.6667L152.667 85.3333L152.333 84.6667M174 84L175 85L174 84M185.333 84.6667L185.667 85.3333L185.333 84.6667M203.333 84.6667L203.667 85.3333L203.333 84.6667M214.333 84.6667L214.667 85.3333L214.333 84.6667M235 84L236 85L235 84M245.333 84.6667L245.667 85.3333L245.333 84.6667M270 84L271 85L270 84M281 84L282 85L281 84M312 84L313 85L312 84M323.333 84.6667L323.667 85.3333L323.333 84.6667M348 84L349 85L348 84z"/>
<path style="fill:#f1b78c; stroke:none;" d="M415 84L415 85L433 85L433 86L425 86L425 87L434 87L434 84L415 84M450 84L451 85L450 84M461 84L460 94L461 94L461 84z"/>
<path style="fill:#bab9b9; stroke:none;" d="M477 84L478 85L477 84M503 84L504 85L503 84M530 84L531 85L530 84M533 84L534 85L533 84M554 84L555 85L554 84M575 84L576 85L575 84M636 84L637 85L636 84M680 84L681 85L680 84M694 84L694 86L696 86L694 84M704.667 84.3333L705.333 84.6667L704.667 84.3333M722 84L723 85L722 84M747 84L748 85L747 84M756 84L757 85L756 84M774 84L775 85L774 84M787 84L788 85L787 84M825 84L826 85L825 84z"/>
<path style="fill:#f1b78c; stroke:none;" d="M71 85L71 86L74 86L71 85z"/>
<path style="fill:#bab9b9; stroke:none;" d="M173 85L174 86L173 85M234 85L235 86L234 85M269 85L270 86L269 85M280 85L281 86L280 85M311 85L312 86L311 85M347 85L348 86L347 85M350.333 85.6667L350.667 86.3333L350.333 85.6667z"/>
<path style="fill:#f1b78c; stroke:none;" d="M408 85L408 86L411 86L408 85M451 85L452 93L453 93L451 85z"/>
<path style="fill:#bab9b9; stroke:none;" d="M476.333 85.6667L476.667 86.3333L476.333 85.6667M502.333 85.6667L502.667 86.3333L502.333 85.6667M529 85L530 86L529 85M532.333 85.6667L532.667 86.3333L532.333 85.6667M545 85L546 86L545 85M553.333 85.6667L553.667 86.3333L553.333 85.6667M574 85L575 86L574 85M606 85L607 86L606 85M618 85L619 86L618 85M635 85L636 86L635 85M646.333 85.6667L646.667 86.3333L646.333 85.6667M670 85L671 86L670 85M702.667 85.3333L703.333 85.6667L702.667 85.3333M721 85L722 86L721 85M730 85L731 86L730 85M755 85L756 86L755 85M788 85L789 86L788 85M824 85L825 86L824 85M828 85L829 86L828 85z"/>
<path style="fill:#f1b78c; stroke:none;" d="M66 86L66 87L69 87L66 86M88 86L88 87L97 87L88 86M114 86L115 87L114 86z"/>
<path style="fill:#bab9b9; stroke:none;" d="M142.333 86.6667L142.667 87.3333L142.333 86.6667M151.333 86.6667L151.667 87.3333L151.333 86.6667M213.333 86.6667L213.667 87.3333L213.333 86.6667M233 86L234 87L233 86M244.333 86.6667L244.667 87.3333L244.333 86.6667M268 86L269 87L268 86M310 86L311 87L310 86M322 86L322 89L323 89L322 86M346 86L347 87L346 86z"/>
<path style="fill:#f1b78c; stroke:none;" d="M403 86L403 87L406 87L403 86z"/>
<path style="fill:#bab9b9; stroke:none;" d="M510 86L511 87L510 86M528 86L529 87L528 86M544 86L545 87L544 86M573 86L574 87L573 86M577 86L577 103L578 103L577 86M605.333 86.6667L605.667 87.3333L605.333 86.6667M634 86L635 87L634 86M669 86L670 87L669 86M679 86L680 87L679 86M697 86L697 87L700 87L697 86M720 86L721 87L720 86M729.333 86.6667L729.667 87.3333L729.333 86.6667M746 86L747 87L746 86M754 86L755 87L754 86M790 86L791 87L790 86M827 86L828 87L827 86z"/>
<path style="fill:#f1b78c; stroke:none;" d="M63.6667 87.3333L64.3333 87.6667L63.6667 87.3333M79 87L79 88L83 88L79 87z"/>
<path style="fill:#bab9b9; stroke:none;" d="M172 87L173 88L172 87M184 87L185 88L184 87M202 87L202 97L203 97L202 87M232 87L233 88L232 87M267 87L268 88L267 87M279 87L279 90L280 90L279 87M309 87L310 88L309 87M345 87L346 88L345 87M349 87L350 88L349 87z"/>
<path style="fill:#f1b78c; stroke:none;" d="M400.667 87.3333L401.333 87.6667L400.667 87.3333M416 87L416 88L420 88L416 87z"/>
<path style="fill:#bab9b9; stroke:none;" d="M475 87L476 88L475 87M501 87L502 88L501 87M508.667 87.3333L509.333 87.6667L508.667 87.3333M527 87L528 88L527 87M531 87L532 88L531 87M543 87L544 88L543 87M552 87L553 88L552 87M572 87L573 88L572 87M617 87L618 88L617 87M633 87L634 88L633 87M668 87L669 88L668 87M678.333 87.6667L678.667 88.3333L678.333 87.6667M719 87L720 88L719 87M745 87L746 88L745 87M753 87L754 88L753 87M771 87L772 88L771 87M775 87L776 88L775 87M777 87L778 88L777 87M792 87L793 88L792 87M823 87L824 88L823 87M826 87L827 88L826 87z"/>
<path style="fill:#f1b78c; stroke:none;" d="M60.6667 88.3333L61.3333 88.6667L60.6667 88.3333M75.6667 88.3333L76.3333 88.6667L75.6667 88.3333M115 88L115 92L116 92L115 88z"/>
<path style="fill:#bab9b9; stroke:none;" d="M171 88L172 89L171 88M212 88L213 89L212 88M231 88L232 89L231 88M266 88L267 89L266 88M308 88L309 89L308 88M344 88L345 89L344 88M348 88L349 89L348 88z"/>
<path style="fill:#f1b78c; stroke:none;" d="M397.667 88.3333L398.333 88.6667L397.667 88.3333M412.667 88.3333L413.333 88.6667L412.667 88.3333z"/>
<path style="fill:#bab9b9; stroke:none;" d="M474.333 88.6667L474.667 89.3333L474.333 88.6667M500 88L501 89L500 88M507 88L508 89L507 88M526 88L527 89L526 88M530 88L531 89L530 88M542 88L543 89L542 88M551.333 88.6667L551.667 89.3333L551.333 88.6667M571 88L572 89L571 88M575 88L576 89L575 88M586 88L586 103L587 103L586 88M604 88L604 92L605 92L604 88M616 88L617 89L616 88M632 88L633 89L632 88M645.333 88.6667L645.667 89.3333L645.333 88.6667M667 88L668 89L667 88M728.333 88.6667L728.667 89.3333L728.333 88.6667M744 88L745 89L744 88M752 88L753 89L752 88M770 88L771 89L770 88M774 88L775 89L774 88M778 88L779 89L778 88M793.667 88.3333L794.333 88.6667L793.667 88.3333M822 88L823 89L822 88M825 88L826 89L825 88z"/>
<path style="fill:#f1b78c; stroke:none;" d="M72 89L73 90L72 89M124 89L124 92L125 92L124 89z"/>
<path style="fill:#bab9b9; stroke:none;" d="M141.333 89.6667L141.667 90.3333L141.333 89.6667M150.333 89.6667L150.667 90.3333L150.333 89.6667M170 89L171 90L170 89M183.333 89.6667L183.667 90.3333L183.333 89.6667M230 89L231 90L230 89M243 89L244 90L243 89M265 89L266 90L265 89M266 95L270 95L271 89L266 95M307 89L308 90L307 89M311 89L308 93L310 94L311 94L311 89M321.333 89.6667L321.667 90.3333L321.333 89.6667M343 89L344 90L343 89M347 89L348 90L347 89z"/>
<path style="fill:#f1b78c; stroke:none;" d="M395.667 89.3333L396.333 89.6667L395.667 89.3333M408.667 89.3333L409.333 89.6667L408.667 89.3333z"/>
<path style="fill:#bab9b9; stroke:none;" d="M498 89L499 90L498 89M506 89L507 90L506 89M525 89L526 90L525 89M529 89L530 90L529 89M541.333 89.6667L541.667 90.3333L541.333 89.6667M570 89L571 90L570 89M574 89L575 90L574 89M631 89L632 90L631 89M677.333 89.6667L677.667 90.3333L677.333 89.6667M718 89L719 90L718 89M742 89L743 90L742 89M750 89L751 90L750 89M779 89L780 90L779 89M795 89L796 90L795 89M821 89L822 90L821 89M824 89L825 90L824 89z"/>
<path style="fill:#f1b78c; stroke:none;" d="M57 90L58 91L57 90M69.6667 90.3333L70.3333 90.6667L69.6667 90.3333z"/>
<path style="fill:#bab9b9; stroke:none;" d="M169 90L170 91L169 90M173 90L173 94L174 94L175 90L173 90M211 90L212 91L211 90M229 90L230 91L229 90M233 90L232 95L233 95L233 90M264 90L265 91L264 90z"/>
<path style="fill:#fffefe; stroke:none;" d="M269 90L267 94L269 90z"/>
<path style="fill:#bab9b9; stroke:none;" d="M278 90L278 93L279 93L278 90M306 90L307 91L306 90M342 90L343 91L342 90M346 90L347 91L346 90z"/>
<path style="fill:#f1b78c; stroke:none;" d="M394 90L395 91L394 90M406.667 90.3333L407.333 90.6667L406.667 90.3333z"/>
<path style="fill:#bab9b9; stroke:none;" d="M473.333 90.6667L473.667 91.3333L473.333 90.6667M497 90L498 91L497 90M504.667 90.3333L505.333 90.6667L504.667 90.3333M524 90L525 91L524 90M528 90L529 91L528 90M550 90L551 91L550 90M569 90L570 91L569 90M573 90L574 91L573 90M615 90L616 91L615 90M630 90L631 91L630 90M635 90L634 94L635 94L635 90M644.333 90.6667L644.667 91.3333L644.333 90.6667M666 90L667 91L666 90M727 90L727 93L728 93L727 90M741 90L742 91L741 90M749 90L750 91L749 90M773 90L774 91L773 90M781 90L782 91L781 90M797 90L798 91L797 90M820 90L821 91L820 90z"/>
<path style="fill:#f1b78c; stroke:none;" d="M68 91L69 92L68 91z"/>
<path style="fill:#bab9b9; stroke:none;" d="M140 91L140 94L141 94L140 91M210 91L211 92L210 91M228 91L229 92L228 91M242.333 91.6667L242.667 92.3333L242.333 91.6667M263 91L264 92L263 91M305 91L306 92L305 91z"/>
<path style="fill:#fffefe; stroke:none;" d="M310 91L311 92L310 91z"/>
<path style="fill:#bab9b9; stroke:none;" d="M320 91L320 94L321 94L320 91M341 91L342 92L341 91M345 91L346 92L345 91z"/>
<path style="fill:#f1b78c; stroke:none;" d="M392.667 91.3333L393.333 91.6667L392.667 91.3333M404.667 91.3333L405.333 91.6667L404.667 91.3333z"/>
<path style="fill:#bab9b9; stroke:none;" d="M495 91L496 92L495 91M502.667 91.3333L503.333 91.6667L502.667 91.3333M523 91L524 92L523 91M527 91L528 92L527 91M540 91L541 92L540 91M549.333 91.6667L549.667 92.3333L549.333 91.6667M568 91L569 92L568 91M572 91L573 92L572 91M614 91L615 92L614 91M629 91L630 92L629 91M665 91L666 92L665 91M676.333 91.6667L676.667 92.3333L676.333 91.6667M717 91L718 92L717 91M740 91L741 92L740 91M747 91L748 92L747 91M767 91L768 92L767 91M783 91L784 92L783 91M798 91L799 92L798 91M819 91L820 92L819 91M823 91L824 92L823 91z"/>
<path style="fill:#f1b78c; stroke:none;" d="M66 92L67 93L66 92M123.333 92.6667L123.667 93.3333L123.333 92.6667z"/>
<path style="fill:#bab9b9; stroke:none;" d="M149 92L150 93L149 92M168 92L169 93L168 92M171 92L172 93L171 92M182 92L183 93L182 92M209.333 92.6667L209.667 93.3333L209.333 92.6667M227 92L228 93L227 92z"/>
<path style="fill:#fffefe; stroke:none;" d="M232 92L233 93L232 92z"/>
<path style="fill:#bab9b9; stroke:none;" d="M262 92L263 93L262 92M304 92L305 93L304 92M340 92L341 93L340 92M344 92L345 93L344 92z"/>
<path style="fill:#f1b78c; stroke:none;" d="M391.333 92.6667L391.667 93.3333L391.333 92.6667M403 92L404 93L403 92z"/>
<path style="fill:#bab9b9; stroke:none;" d="M472 92L472 102L473 102L472 92M493.667 92.3333L494.333 92.6667L493.667 92.3333M500.667 92.3333L501.333 92.6667L500.667 92.3333M522 92L523 93L522 92M526 92L527 93L526 92M539.333 92.6667L539.667 93.3333L539.333 92.6667M567 92L568 93L567 92M571 92L572 93L571 92M613 92L614 93L613 92M628 92L629 93L628 92M632 92L633 93L632 92M643.333 92.6667L643.667 93.3333L643.333 92.6667M664 92L665 93L664 92M716 92L717 93L716 92M738 92L739 93L738 92M745 92L746 93L745 92M766 92L767 93L766 92M784.667 92.3333L785.333 92.6667L784.667 92.3333M800 92L801 93L800 92M818 92L819 93L818 92M822 92L823 93L822 92z"/>
<path style="fill:#f1b78c; stroke:none;" d="M54 93L55 94L54 93M65 93L66 94L65 93M114.333 93.6667L114.667 94.3333L114.333 93.6667z"/>
<path style="fill:#bab9b9; stroke:none;" d="M167 93L168 94L167 93M170.333 93.6667L170.667 94.3333L170.333 93.6667M226 93L227 94L226 93M230 93L231 94L230 93M241 93L241 96L242 96L241 93M261 93L262 94L261 93M303 93L304 94L303 93M306.667 93.3333L307.333 93.6667L306.667 93.3333M339 93L340 94L339 93M343 93L344 94L343 93z"/>
<path style="fill:#f1b78c; stroke:none;" d="M402 93L403 94L402 93M451 93L451 96L452 96L451 93z"/>
<path style="fill:#bab9b9; stroke:none;" d="M491 93L492 94L491 93M498.667 93.3333L499.333 93.6667L498.667 93.3333M521 93L522 94L521 93M525 93L526 94L525 93M548.333 93.6667L548.667 94.3333L548.333 93.6667M566 93L567 94L566 93M570 93L571 94L570 93M604 93L604 99L605 99L604 93M627 93L628 94L627 93M631 93L632 94L631 93M663 93L664 94L663 93M715 93L716 94L715 93M726 93L726 96L727 96L726 93M735.667 93.3333L736.333 93.6667L735.667 93.3333M742.667 93.3333L743.333 93.6667L742.667 93.3333M765 93L766 94L765 93M769 93L770 94L769 93M786 93L787 94L786 93M801 93L802 94L801 93M821 93L822 94L821 93z"/>
<path style="fill:#f1b78c; stroke:none;" d="M53 94L54 95L53 94M64.3333 94.6667L64.6667 95.3333L64.3333 94.6667M122.333 94.6667L122.667 95.3333L122.333 94.6667z"/>
<path style="fill:#bab9b9; stroke:none;" d="M139.333 94.6667L139.667 95.3333L139.333 94.6667M148.333 94.6667L148.667 95.3333L148.333 94.6667M166 94L167 95L166 94M181.333 94.6667L181.667 95.3333L181.333 94.6667M208 94L209 95L208 94M225 94L226 95L225 94M229 94L230 95L229 94M260 94L261 95L260 94M277.333 94.6667L277.667 95.3333L277.333 94.6667M302 94L303 95L302 94M305 94L306 95L305 94M309.333 94.6667L309.667 95.3333L309.333 94.6667M319.333 94.6667L319.667 95.3333L319.333 94.6667M338 94L339 95L338 94M342 94L343 95L342 94z"/>
<path style="fill:#f1b78c; stroke:none;" d="M390.333 94.6667L390.667 95.3333L390.333 94.6667M401.333 94.6667L401.667 95.3333L401.333 94.6667M459 94L460 95L459 94z"/>
<path style="fill:#bab9b9; stroke:none;" d="M488.667 94.3333L489.333 94.6667L488.667 94.3333M496.667 94.3333L497.333 94.6667L496.667 94.3333M520 94L521 95L520 94M524 94L525 95L524 94M538.333 94.6667L538.667 95.3333L538.333 94.6667M565 94L566 95L565 94M569 94L570 95L569 94M612 94L613 95L612 94M626 94L627 95L626 94M630 94L631 95L630 94M633.333 94.6667L633.667 95.3333L633.333 94.6667M642.333 94.6667L642.667 95.3333L642.333 94.6667M662 94L663 95L662 94M675 94L675 102L676 102L675 94M714 94L715 95L714 94M732.667 94.3333L733.333 94.6667L732.667 94.3333M740.667 94.3333L741.333 94.6667L740.667 94.3333M764 94L765 95L764 94M768 94L769 95L768 94M788 94L789 95L788 94M815 94L816 95L815 94M820 94L821 95L820 94M165 95L166 96L165 95M169 95L170 96L169 95M172.333 95.6667L172.667 96.3333L172.333 95.6667M207 95L208 96L207 95M224 95L225 96L224 95M228 95L229 96L228 95M231.333 95.6667L231.667 96.3333L231.333 95.6667M259 95L260 96L259 95M300 95L301 96L300 95M304 95L305 96L304 95M337 95L338 96L337 95M341 95L342 96L341 95z"/>
<path style="fill:#f1b78c; stroke:none;" d="M458 95L459 96L458 95z"/>
<path style="fill:#bab9b9; stroke:none;" d="M484 95L484 96L487 96L484 95M493.667 95.3333L494.333 95.6667L493.667 95.3333M519 95L520 96L519 95M523 95L524 96L523 95M547 95L548 96L547 95M564 95L565 96L564 95M568 95L569 96L568 95M611 95L612 96L611 95M625 95L626 96L625 95M629 95L630 96L629 95M660.667 95.3333L661.333 95.6667L660.667 95.3333M712 95L713 96L712 95M728 95L728 96L731 96L728 95M737 95L737 96L740 96L737 95M763 95L764 96L763 95M767 95L768 96L767 95M790 95L791 96L790 95M802 95L803 96L802 95M814 95L815 96L814 95M818 95L819 96L818 95z"/>
<path style="fill:#f1b78c; stroke:none;" d="M52 96L52 100L53 100L52 96M63 96L63 101L64 101L63 96M113 96L114 97L113 96z"/>
<path style="fill:#bab9b9; stroke:none;" d="M164 96L165 97L164 96M206.333 96.6667L206.667 97.3333L206.333 96.6667M222.667 96.3333L223.333 96.6667L222.667 96.3333M226 96L227 97L226 96M240.333 96.6667L240.667 97.3333L240.333 96.6667M258 96L259 97L258 96M276 96L276 99L277 99L276 96M299 96L300 97L299 96M303 96L304 97L303 96M318.333 96.6667L318.667 97.3333L318.333 96.6667M336 96L337 97L336 96M340 96L341 97L340 96z"/>
<path style="fill:#f1b78c; stroke:none;" d="M389 96L389 100L390 100L389 96M400 96L400 102L401 102L400 96M450 96L451 97L450 96M457.333 96.6667L457.667 97.3333L457.333 96.6667z"/>
<path style="fill:#bab9b9; stroke:none;" d="M489.667 96.3333L490.333 96.6667L489.667 96.3333M517 96L518 97L517 96M521.667 96.3333L522.333 96.6667L521.667 96.3333M537 96L538 97L537 96M546.333 96.6667L546.667 97.3333L546.333 96.6667M563 96L564 97L563 96M567 96L568 97L567 96M609 96L609 100L610 100L609 96M623 96L624 97L623 96M628 96L629 97L628 96M632.333 96.6667L632.667 97.3333L632.333 96.6667M641 96L641 99L642 99L641 96M659 96L660 97L659 96M663 96L664 99L665 99L665 96L663 96M711 96L712 97L711 96M733 96L733 97L736 97L733 96M761.667 96.3333L762.333 96.6667L761.667 96.3333M766 96L767 97L766 96M791 96L792 97L791 96M803 96L803 100L804 100L803 96M813 96L814 97L813 96M817 96L818 97L817 96z"/>
<path style="fill:#f1b78c; stroke:none;" d="M112 97L113 98L112 97M120 97L121 98L120 97z"/>
<path style="fill:#bab9b9; stroke:none;" d="M138.333 97.6667L138.667 98.3333L138.333 97.6667M147 97L148 98L147 97M163 97L164 98L163 97M167 97L168 98L167 97M180 97L180 100L181 100L180 97M201 97L202 98L201 97M221 97L222 98L221 97M225 97L226 98L225 97M230.333 97.6667L230.667 98.3333L230.333 97.6667M257 97L258 98L257 97M297 97L298 98L297 97M302 97L303 98L302 97M308 97L308 100L309 100L308 97M335 97L336 98L335 97M339 97L340 98L339 97z"/>
<path style="fill:#f1b78c; stroke:none;" d="M449 97L450 98L449 97z"/>
<path style="fill:#bab9b9; stroke:none;" d="M485 97L485 98L488 98L485 97M516 97L517 98L516 97M520 97L521 98L520 97M536 97L535 107L536 107L536 97M561.667 97.3333L562.333 97.6667L561.667 97.3333M566 97L567 98L566 97M622 97L623 98L622 97M627 97L628 98L627 97M658 97L659 98L658 97M662 97L663 98L662 97M709.667 97.3333L710.333 97.6667L709.667 97.3333M714 97L715 98L714 97M716 97L716 101L717 101L716 97M730.667 97.3333L731.333 97.6667L730.667 97.3333M760 97L761 98L760 97M765 97L766 98L765 97M793 97L794 98L793 97M812 97L813 98L812 97M816 97L817 98L816 97z"/>
<path style="fill:#f1b78c; stroke:none;" d="M111 98L112 99L111 98M119 98L120 99L119 98z"/>
<path style="fill:#bab9b9; stroke:none;" d="M162 98L163 99L162 98M166 98L167 99L166 98M171 98L171 102L172 102L171 98M200 98L201 99L200 98M220 98L221 99L220 98M224 98L225 99L224 98M239.333 98.6667L239.667 99.3333L239.333 98.6667M255 98L256 99L255 98M259 98L259 99L262 99L259 98M295.667 98.3333L296.333 98.6667L295.667 98.3333M300 98L301 99L300 98M334 98L335 99L334 98M338 98L339 99L338 98z"/>
<path style="fill:#f1b78c; stroke:none;" d="M448 98L449 99L448 98M454 100L457 98L454 100z"/>
<path style="fill:#bab9b9; stroke:none;" d="M482.667 98.3333L483.333 98.6667L482.667 98.3333M514.667 98.3333L515.333 98.6667L514.667 98.3333M519 98L520 99L519 98M545 98L545 101L546 101L545 98M560 98L561 99L560 98M564.667 98.3333L565.333 98.6667L564.667 98.3333M621 98L622 99L621 98M626 98L627 99L626 98M657 98L658 99L657 98M661 98L662 99L661 98M708 98L709 99L708 98M713 98L714 99L713 98M726 98L726 102L727 102L729 99L726 98M759 98L760 99L759 98M763 98L764 99L763 98M810 98L811 99L810 98M815 98L816 99L815 98z"/>
<path style="fill:#f1b78c; stroke:none;" d="M110 99L111 100L110 99M118 99L119 100L118 99z"/>
<path style="fill:#bab9b9; stroke:none;" d="M146 99L146 104L147 104L146 99M161 99L162 100L161 99M165 99L166 100L165 99M198 99L199 100L198 99M202.667 99.3333L203.333 99.6667L202.667 99.3333M207 99L208 100L207 99M218 99L219 100L218 99M223 99L224 100L223 99M254 99L255 100L254 99M258 99L259 100L258 99M263.667 99.3333L264.333 99.6667L263.667 99.3333M278 99L279 100L278 99M293.667 99.3333L294.333 99.6667L293.667 99.3333M299 99L300 100L299 99M317.333 99.6667L317.667 100.333L317.333 99.6667M332.667 99.3333L333.333 99.6667L332.667 99.3333M337 99L338 100L337 99z"/>
<path style="fill:#f1b78c; stroke:none;" d="M447 99L448 100L447 99z"/>
<path style="fill:#bab9b9; stroke:none;" d="M481.333 99.6667L481.667 100.333L481.333 99.6667M513 99L514 100L513 99M518 99L519 100L518 99M559 99L560 100L559 99M563 99L564 100L563 99M603 99L604 100L603 99M619.667 99.3333L620.333 99.6667L619.667 99.3333M624 99L625 100L624 99M631.333 99.6667L631.667 100.333L631.333 99.6667M640 99L640 102L641 102L640 99M656 99L657 100L656 99M660 99L661 100L660 99M707 99L708 100L707 99M712 99L713 100L712 99M757 99L758 100L757 99M762 99L763 100L762 99M771 99L771 100L777 100L771 99M794 99L794 104L795 104L794 99M809 99L810 100L809 99M814 99L815 100L814 99z"/>
<path style="fill:#f1b78c; stroke:none;" d="M109 100L110 101L109 100M116 100L117 101L116 100z"/>
<path style="fill:#bab9b9; stroke:none;" d="M137 100L137 106L138 106L137 100M160 100L161 101L160 100M164 100L165 101L164 100M197 100L198 101L197 100M201 100L202 101L201 100M204 100L205 101L204 100M208 100L209 101L208 100M216.667 100.333L217.333 100.667L216.667 100.333M222 100L223 101L222 100M229 100L229 106L230 106L229 100M238 100L238 106L239 106L238 100M253 100L254 101L253 100M257 100L258 101L257 100M265.667 100.333L266.333 100.667L265.667 100.333M281 100L281 101L284 101L281 100M288 100L288 101L292 101L288 100M298 100L299 101L298 100M307 100L307 107L308 107L307 100M331 100L332 101L331 100M336 100L337 101L336 100z"/>
<path style="fill:#f1b78c; stroke:none;" d="M390.333 100.667L390.667 101.333L390.333 100.667M446 100L447 101L446 100M453 100L454 101L453 100z"/>
<path style="fill:#bab9b9; stroke:none;" d="M511.667 100.333L512.333 100.667L511.667 100.333M516 100L517 101L516 100M558 100L559 101L558 100M562 100L563 101L562 100M602 100L603 101L602 100M606 100L607 101L606 100M610.667 100.333L611.333 100.667L610.667 100.333M618 100L619 101L618 100M623 100L624 101L623 100M654.667 100.333L655.333 100.667L654.667 100.333M659 100L660 101L659 100M665.333 100.667L665.667 101.333L665.333 100.667M705 100L706 101L705 100M710 100L711 101L710 100M756 100L757 101L756 100M761 100L762 101L761 100M768.667 100.333L769.333 100.667L768.667 100.333M777 100L778 101L777 100M807.667 100.333L808.333 100.667L807.667 100.333M812 100L813 101L812 100z"/>
<path style="fill:#f1b78c; stroke:none;" d="M53 101L54 102L53 101M108 101L109 102L108 101M115 101L116 102L115 101z"/>
<path style="fill:#bab9b9; stroke:none;" d="M159 101L160 102L159 101M163 101L164 102L163 101M196 101L197 102L196 101M200 101L201 102L200 101M205 101L206 102L205 101M210 101L210 102L215 102L210 101M220 101L221 102L220 101M252 101L253 102L252 101M256 101L257 102L256 101M296 101L297 102L296 101M316 101L316 106L317 106L316 101M330 101L331 102L330 101M334 101L335 102L334 101z"/>
<path style="fill:#f1b78c; stroke:none;" d="M444.667 101.333L445.333 101.667L444.667 101.333M452 101L453 102L452 101z"/>
<path style="fill:#bab9b9; stroke:none;" d="M482.333 101.667L482.667 102.333L482.333 101.667M510 101L511 102L510 101M515 101L516 102L515 101M544 101L544 105L545 105L544 101M557 101L558 102L557 101M561 101L562 102L561 101M601 101L602 102L601 101M605 101L606 102L605 101M607 101L608 102L607 101M612 101L612 102L617 102L612 101M622 101L623 102L622 101M630 101L630 105L631 105L630 101M653 101L654 102L653 101M657 101L658 102L657 101M704 101L705 102L704 101M709 101L710 102L709 101M754 101L755 102L754 101M759 101L760 102L759 101M767 101L768 102L767 101M776 101L777 102L776 101M802 101L803 102L802 101M806 101L807 102L806 101M811 101L812 102L811 101z"/>
<path style="fill:#f1b78c; stroke:none;" d="M64 102L65 103L64 102M106 102L107 103L106 102M113 102L114 103L113 102z"/>
<path style="fill:#bab9b9; stroke:none;" d="M157.667 102.333L158.333 102.667L157.667 102.333M194 102L195 103L194 102M199 102L200 103L199 102M206 102L207 103L206 102M218.667 102.333L219.333 102.667L218.667 102.333M250 102L251 103L250 102M255 102L256 103L255 102M266.333 102.667L266.667 103.333L266.333 102.667M294 102L295 103L294 102M328.667 102.333L329.333 102.667L328.667 102.333M333 102L334 103L333 102z"/>
<path style="fill:#f1b78c; stroke:none;" d="M391.333 102.667L391.667 103.333L391.333 102.667M401 102L402 103L401 102M443 102L444 103L443 102M450 102L451 103L450 102z"/>
<path style="fill:#bab9b9; stroke:none;" d="M473.333 102.667L473.667 103.333L473.333 102.667M508 102L509 103L508 102M513 102L514 103L513 102M556 102L557 103L556 102M560 102L561 103L560 102M599 102L600 103L599 102M604 102L605 103L604 102M608 102L609 103L608 102M620 102L621 103L620 102M639 102L639 105L640 105L639 102M652 102L653 103L652 102M656 102L657 103L656 102M676.333 102.667L676.667 103.333L676.333 102.667M702 102L703 103L702 102M707 102L708 103L707 102M717.333 102.667L717.667 103.333L717.333 102.667M752.667 102.333L753.333 102.667L752.667 102.333M757.667 102.333L758.333 102.667L757.667 102.333M766 102L767 103L766 102M775 102L775 106L776 106L775 102M800 104L803 104L802 102L800 104M804 102L805 103L804 102M809 102L810 103L809 102z"/>
<path style="fill:#f1b78c; stroke:none;" d="M54 103L55 104L54 103M65 103L66 104L65 103M104 103L105 104L104 103M112 103L113 104L112 103z"/>
<path style="fill:#bab9b9; stroke:none;" d="M156 103L157 104L156 103M160 103L161 104L160 103M171 103L171 106L172 106L171 103M193 103L194 104L193 103M197 103L198 104L197 103M207.667 103.333L208.333 103.667L207.667 103.333M216 103L217 104L216 103M249 103L250 104L249 103M253 103L254 104L253 103M274 103L275 108L276 108L276 103L274 103M291.667 103.333L292.333 103.667L291.667 103.333M327 103L328 104L327 103M332 103L333 104L332 103z"/>
<path style="fill:#f1b78c; stroke:none;" d="M402 103L403 104L402 103M441 103L442 104L441 103M448.667 103.333L449.333 103.667L448.667 103.333z"/>
<path style="fill:#bab9b9; stroke:none;" d="M483 103L484 104L483 103M506.667 103.333L507.333 103.667L506.667 103.333M512 103L513 104L512 103M554 103L555 104L554 103M559 103L560 104L559 103M578 103L578 106L579 106L578 103M587.333 103.667L587.667 104.333L587.333 103.667M598 103L599 104L598 103M603 103L604 104L603 103M609.667 103.333L610.333 103.667L609.667 103.333M617.667 103.333L618.333 103.667L617.667 103.333M650 103L651 104L650 103M655 103L656 104L655 103M666 103L667 104L666 103M700 103L701 104L700 103M706 103L707 104L706 103M727 103L728 104L727 103M750.667 103.333L751.333 103.667L750.667 103.333M756 103L757 104L756 103M765.333 103.667L765.667 104.333L765.333 103.667M807 103L808 104L807 103z"/>
<path style="fill:#f1b78c; stroke:none;" d="M55 104L56 105L55 104M66 104L67 105L66 104M102 104L103 105L102 104M109.667 104.333L110.333 104.667L109.667 104.333z"/>
<path style="fill:#bab9b9; stroke:none;" d="M154 104L155 105L154 104M159 104L160 105L159 104M180 104L181 105L180 104M191 104L192 105L191 104M196 104L197 105L196 104M211 104L211 105L214 105L211 104M247 104L248 105L247 104M252 104L253 105L252 104M278 104L278 105L281 105L278 104M286 104L286 105L289 105L286 104M325.667 104.333L326.333 104.667L325.667 104.333M330.667 104.333L331.333 104.667L330.667 104.333z"/>
<path style="fill:#f1b78c; stroke:none;" d="M392 104L393 105L392 104M403 104L404 105L403 104M439 104L440 105L439 104M446.667 104.333L447.333 104.667L446.667 104.333z"/>
<path style="fill:#bab9b9; stroke:none;" d="M474.333 104.667L474.667 105.333L474.333 104.667M484 104L485 105L484 104M504 104L505 105L504 104M510 104L511 105L510 104M552 104L553 105L552 104M558 104L559 105L558 104M596.667 104.333L597.333 104.667L596.667 104.333M601 104L602 105L601 104M612 104L612 105L615 105L612 104M649 104L650 105L649 104M653 104L654 105L653 104M667 104L668 105L667 104M677 104L678 105L677 104M698 104L699 105L698 104M704 104L705 105L704 104M718 104L719 105L718 104M728 104L729 105L728 104M748.667 104.333L749.333 104.667L748.667 104.333M754 104L755 105L754 104M793 104L794 105L793 104M806 104L807 105L806 104z"/>
<path style="fill:#f1b78c; stroke:none;" d="M57 105L58 106L57 105M68 105L69 106L68 105M99.6667 105.333L100.333 105.667L99.6667 105.333M107.667 105.333L108.333 105.667L107.667 105.333z"/>
<path style="fill:#bab9b9; stroke:none;" d="M148 105L149 106L148 105M152 105L153 106L152 105M158 105L159 106L158 105M181 105L182 106L181 105M189 105L190 106L189 105M194 105L195 106L194 105M245 105L246 106L245 105M250 105L251 106L250 105M265.333 105.667L265.667 106.333L265.333 105.667M323.667 105.333L324.333 105.667L323.667 105.333M329 105L330 106L329 105z"/>
<path style="fill:#f1b78c; stroke:none;" d="M394 105L395 106L394 105M405 105L406 106L405 105M436.667 105.333L437.333 105.667L436.667 105.333M444.667 105.333L445.333 105.667L444.667 105.333z"/>
<path style="fill:#bab9b9; stroke:none;" d="M485 105L486 106L485 105M501.667 105.333L502.333 105.667L501.667 105.333M508 105L509 106L508 105M545.667 105.333L546.333 105.667L545.667 105.333M550.667 105.333L551.333 105.667L550.667 105.333M556.667 105.333L557.333 105.667L556.667 105.333M589 105L590 106L589 105M594 105L595 106L594 105M600 105L601 106L600 105M631.333 105.667L631.667 106.333L631.333 105.667M640 105L641 106L640 105M646.667 105.333L647.333 105.667L646.667 105.333M652 105L653 106L652 105M668 105L669 106L668 105M678.667 105.333L679.333 105.667L678.667 105.333M695.667 105.333L696.333 105.667L695.667 105.333M702 105L703 106L702 105M719 105L720 106L719 105M729 105L730 106L729 105M746 105L747 106L746 105M752 105L753 106L752 105M791.667 105.333L792.333 105.667L791.667 105.333M803.667 105.333L804.333 105.667L803.667 105.333z"/>
<path style="fill:#f1b78c; stroke:none;" d="M58 106L59 107L58 106M70 106L71 107L70 106M96.6667 106.333L97.3333 106.667L96.6667 106.333M105 106L106 107L105 106z"/>
<path style="fill:#bab9b9; stroke:none;" d="M138 106L139 107L138 106M156 106L157 107L156 106M172.333 106.667L172.667 107.333L172.333 106.667M182 106L182 107L187 107L182 106M192 106L193 107L192 106M239 106L239 107L244 107L239 106M248.667 106.333L249.333 106.667L248.667 106.333M318 106L318 107L322 107L318 106M327.667 106.333L328.333 106.667L327.667 106.333z"/>
<path style="fill:#f1b78c; stroke:none;" d="M395 106L396 107L395 106M407.667 106.333L408.333 106.667L407.667 106.333M432 106L432 107L435 107L432 106M442 106L443 107L442 106z"/>
<path style="fill:#bab9b9; stroke:none;" d="M475 106L476 107L475 106M487 106L488 107L487 106M498.667 106.333L499.333 106.667L498.667 106.333M506 106L507 107L506 106M555 106L556 107L555 106M579 106L580 107L579 106M599 106L600 107L599 106M641 106L641 107L645 107L641 106M650 106L651 107L650 106M669 106L670 107L669 106M680.667 106.333L681.333 106.667L680.667 106.333M691 106L691 107L694 107L691 106M700 106L701 107L700 106M720 106L721 107L720 106M731 106L732 107L731 106M742.667 106.333L743.333 106.667L742.667 106.333M750 106L751 107L750 106M766 106L767 107L766 106M776 106L777 107L776 106M790 106L791 107L790 106M800.667 106.333L801.333 106.667L800.667 106.333z"/>
<path style="fill:#f1b78c; stroke:none;" d="M60.6667 107.333L61.3333 107.667L60.6667 107.333M73 107L73 108L76 108L73 107M90 107L90 108L94 108L90 107M102 107L103 108L102 107z"/>
<path style="fill:#bab9b9; stroke:none;" d="M154.667 107.333L155.333 107.667L154.667 107.333M190.667 107.333L191.333 107.667L190.667 107.333M230 107L231 108L230 107M246.667 107.333L247.333 107.667L246.667 107.333M308 107L309 108L308 107M326 107L327 108L326 107z"/>
<path style="fill:#f1b78c; stroke:none;" d="M397.667 107.333L398.333 107.667L397.667 107.333M410 107L410 108L413 108L410 107M427 107L427 108L431 108L427 107M439.667 107.333L440.333 107.667L439.667 107.333z"/>
<path style="fill:#bab9b9; stroke:none;" d="M477 107L478 108L477 107M490 107L490 108L495 108L490 107M503.667 107.333L504.333 107.667L503.667 107.333M536 107L537 108L536 107M553.667 107.333L554.333 107.667L553.667 107.333M580 107L581 108L580 107M597 107L598 108L597 107M632 107L633 108L632 107M648 107L649 108L648 107M670 107L671 108L670 107M685 107L685 108L689 108L685 107M697.667 107.333L698.333 107.667L697.667 107.333M721 107L722 108L721 107M734 107L734 108L740 108L734 107M748 107L749 108L748 107M767 107L768 108L767 107M779 107L779 108L782 108L779 107M784 107L784 108L788 108L784 107M795 107L795 108L799 108L795 107z"/>
<path style="fill:#f1b78c; stroke:none;" d="M63.6667 108.333L64.3333 108.667L63.6667 108.333M80 108L80 109L86 109L80 108M98.6667 108.333L99.3333 108.667L98.6667 108.333z"/>
<path style="fill:#bab9b9; stroke:none;" d="M140 108L141 109L140 108M152.667 108.333L153.333 108.667L152.667 108.333M173 108L174 109L173 108M188.667 108.333L189.333 108.667L188.667 108.333M231.667 108.333L232.333 108.667L231.667 108.333M244.667 108.333L245.333 108.667L244.667 108.333M264.333 108.667L264.667 109.333L264.333 108.667M309 108L310 109L309 108M324 108L325 109L324 108z"/>
<path style="fill:#f1b78c; stroke:none;" d="M400.667 108.333L401.333 108.667L400.667 108.333M417 108L417 109L423 109L417 108M435.667 108.333L436.333 108.667L435.667 108.333z"/>
<path style="fill:#bab9b9; stroke:none;" d="M478.667 108.333L479.333 108.667L478.667 108.333M500.667 108.333L501.333 108.667L500.667 108.333M537 108L538 109L537 108M551.667 108.333L552.333 108.667L551.667 108.333M581 108L582 109L581 108M595 108L596 109L595 108M633 108L634 109L633 108M646 108L647 109L646 108M672 108L673 109L672 108M694.667 108.333L695.333 108.667L694.667 108.333M723 108L724 109L723 108M745.667 108.333L746.333 108.667L745.667 108.333M769 108L770 109L769 108M791.667 108.333L792.333 108.667L791.667 108.333z"/>
<path style="fill:#f1b78c; stroke:none;" d="M66 109L66 110L69 110L66 109M92 109L92 110L96 110L92 109z"/>
<path style="fill:#bab9b9; stroke:none;" d="M141 109L142 110L141 109M149 109L149 110L152 110L149 109M175 109L176 110L175 109M185.667 109.333L186.333 109.667L185.667 109.333M233 109L233 110L236 110L233 109M240 109L240 110L243 110L240 109M271 109L268 117L269 117L272 110C276.294 118.923 272.005 124.649 267 132C275.281 126.027 275.745 118.4 274 109L271 109M276 109L276 112L277 112L276 109M310.667 109.333L311.333 109.667L310.667 109.333M321.667 109.333L322.333 109.667L321.667 109.333z"/>
<path style="fill:#f1b78c; stroke:none;" d="M403 109L403 110L406 110L403 109M429 109L429 110L433 110L429 109z"/>
<path style="fill:#bab9b9; stroke:none;" d="M480.667 109.333L481.333 109.667L480.667 109.333M496 109L496 110L499 110L496 109M538.667 109.333L539.333 109.667L538.667 109.333M548 109L548 110L551 110L548 109M582.667 109.333L583.333 109.667L582.667 109.333M592.667 109.333L593.333 109.667L592.667 109.333M635.667 109.333L636.333 109.667L635.667 109.333M641 109L641 110L645 110L641 109M674.667 109.333L675.333 109.667L674.667 109.333M690 109L690 110L693 110L690 109M725.667 109.333L726.333 109.667L725.667 109.333M741.667 109.333L742.333 109.667L741.667 109.333M771.667 109.333L772.333 109.667L771.667 109.333M786 109L786 110L789 110L786 109z"/>
<path style="fill:#f1b78c; stroke:none;" d="M72 110L72 111L90 111L72 110z"/>
<path style="fill:#bab9b9; stroke:none;" d="M144 110L144 111L148 111L144 110M177 110L177 111L184 111L177 110z"/>
<path style="fill:#fffefe; stroke:none;" d="M272 110L265 132C272.821 128.32 277.211 117.628 272 110z"/>
<path style="fill:#bab9b9; stroke:none;" d="M314 110L314 111L319 111L314 110z"/>
<path style="fill:#f1b78c; stroke:none;" d="M409 110L409 111L427 111L409 110z"/>
<path style="fill:#bab9b9; stroke:none;" d="M484 110L484 111L495 111L484 110M541 110L541 111L547 111L541 110M585 110L585 111L591 111L585 110M678 110L678 111L688 111L678 110M728 110L728 111L739 111L728 110M776 110L776 111L784 111L776 110M263 111L263 114L264 114L263 111M277 112L277 116L278 116L277 112M262 115L262 118L263 118L262 115M267.333 118.667L267.667 119.333L267.333 118.667M277 118L278 119L277 118M261 119L261 125L262 125L261 119M266 120L266 123L267 123L266 120M277 120L277 124L278 124L277 120M265 123L265 127L266 127L265 123M276.333 125.667L276.667 126.333L276.333 125.667M260 126L260 131L261 131L260 126M275.333 127.667L275.667 128.333L275.333 127.667M264 128L266 133L264 128M274.333 129.667L274.667 130.333L274.333 129.667M273 131L274 132L273 131M261 132L261 138L262 138L261 132M272 132L273 133L272 132M271 133L272 134L271 133M270 134L271 135L270 134M269 135L270 136L269 135M268 136L269 137L268 136M266 137L267 138L266 137M262 138L263 139L262 138M265 138L266 139L265 138z"/>
</svg>
